<?xml version="1.0" encoding="utf-8"?>
<!-- Generator: Adobe Illustrator 15.1.0, SVG Export Plug-In . SVG Version: 6.00 Build 0)  -->
<!DOCTYPE svg PUBLIC "-//W3C//DTD SVG 1.1//EN" "http://www.w3.org/Graphics/SVG/1.1/DTD/svg11.dtd">
<svg version="1.1" xmlns="http://www.w3.org/2000/svg" xmlns:xlink="http://www.w3.org/1999/xlink" x="0px" y="0px" width="1350px"
	 height="2250px" viewBox="0 0 1350 2250" enable-background="new 0 0 1350 2250" xml:space="preserve">
<g id="base" xmlns:cc="http://creativecommons.org/ns#" xmlns:dc="http://purl.org/dc/elements/1.1/" xmlns:rdf="http://www.w3.org/1999/02/22-rdf-syntax-ns#" xmlns:svg="http://www.w3.org/2000/svg" display="none">
	<g id="layer_Guides" display="inline">
	</g>
	<path id="_x31_1EB7B01" display="inline" fill="none" stroke="#000000" stroke-width="0.8" d="M971.351,921.453v487.098"/>
	<path id="_x30_1EB7B01" display="inline" fill="none" stroke="#000000" stroke-width="0.8" d="M971.351,894.722v26.731"/>
	<path id="_x38_B8A92BF" display="inline" fill="none" stroke="#000000" stroke-linecap="square" stroke-miterlimit="10" d="
		M353.425,538.148L353.425,538.148"/>
	
		<line id="_x34_B78DB01" display="inline" fill="none" stroke="#000000" stroke-linecap="square" stroke-miterlimit="10" x1="971.351" y1="1408.551" x2="360.925" y2="1408.551"/>
	<path id="B49FCF41" display="inline" fill="none" stroke="#000000" stroke-linecap="square" stroke-miterlimit="10" d="
		M971.351,937.046h-37.116c-9.438-0.04-18.811,3.842-25.456,10.544c-6.701,6.646-10.584,16.018-10.544,25.456v30.562"/>
	
		<line id="BD5AB411" display="inline" fill="none" stroke="#000000" stroke-linecap="square" stroke-miterlimit="10" x1="908.778" y1="947.59" x2="908.778" y2="703.698"/>
	<path id="_x39_C9C4A11" display="inline" fill="none" stroke="#000000" stroke-linecap="square" stroke-miterlimit="10" d="
		M-80.899,542.414L-80.899,542.414"/>
	<path id="_x37_C9C4A11" display="inline" fill="none" stroke="#000000" stroke-width="0.8" d="M360.925,921.453v487.098"/>
	<path id="_x38_C9C4A11" display="inline" fill="none" stroke="#000000" stroke-width="0.8" d="M360.925,894.722v26.731"/>
	<path id="_x32_9FAF051" display="inline" fill="none" stroke="#000000" stroke-linecap="square" stroke-miterlimit="10" d="
		M360.925,937.046h37.116c9.438-0.04,18.811,3.842,25.456,10.544c6.701,6.646,10.584,16.018,10.544,25.456v30.562"/>
	<path id="_x31_03BF051" display="inline" fill="none" stroke="#000000" stroke-linecap="square" stroke-miterlimit="10" d="
		M360.925,1408.551l15.2-58.632l38.756-323.63c0.756-6.494,3.982-12.66,8.888-16.984c2.946-2.632,6.488-4.576,10.272-5.697
		c2.479-0.734,5.061-1.116,7.648-1.107l0,0h448.896c2.588-0.009,5.17,0.373,7.648,1.107c3.784,1.121,7.326,3.065,10.272,5.697
		c4.905,4.324,8.132,10.49,8.888,16.984l38.756,323.63l15.2,58.632"/>
	<path id="_x36_8706741" display="inline" fill="none" stroke="#000000" stroke-linecap="square" stroke-miterlimit="10" d="
		M971.351,894.49c-14.001-68.158-28.002-136.315-42.003-204.473c-1.631-8.053-6.131-15.482-12.513-20.656
		c-6.353-5.21-14.535-8.123-22.751-8.1c-151.964,0-303.929,0-455.893,0c-8.216-0.023-16.398,2.89-22.751,8.1
		c-6.382,5.174-10.882,12.604-12.513,20.656c-14.001,68.157-28.002,136.314-42.003,204.473"/>
	
		<line id="EC9C4A11" display="inline" fill="none" stroke="#000000" stroke-linecap="square" stroke-miterlimit="10" x1="423.497" y1="947.59" x2="423.497" y2="703.698"/>
	
		<line id="FC9C4A11" display="inline" fill="none" stroke="#000000" stroke-linecap="square" stroke-miterlimit="10" x1="423.497" y1="703.698" x2="908.778" y2="703.698"/>
</g>
<g id="solids__x28_base_x29_" display="none">
	<g id="_x36_8706741_1_" display="inline">
		
			<image overflow="visible" opacity="0.82" width="683" height="821" xlink:href="E3B33A81.png"  transform="matrix(1 0 0 1 324.5 638.5)">
		</image>
		<g>
			<path fill="#FFFFF2" d="M360.597,896.678c14.001-68.158,28.002-136.315,42.003-204.473c1.631-8.053,6.131-15.482,12.513-20.656
				c6.353-5.21,14.535-8.123,22.751-8.1c151.964,0,303.929,0,455.893,0c8.216-0.023,16.398,2.89,22.751,8.1
				c6.382,5.174,10.882,12.604,12.513,20.656c14.001,68.157,28.002,136.314,42.003,204.473v0.231v26.731v487.098H360.597V923.641
				v-26.731"/>
		</g>
	</g>
	<path id="_x31_03BF051_3_" display="inline" fill="none" stroke="#000000" stroke-linecap="square" stroke-miterlimit="10" d="
		M971.351,937.046h-37.116c-9.438-0.04-18.811,3.842-25.456,10.544c-6.701,6.646-10.584,16.018-10.544,25.456v30.562
		c-0.114-0.036,0.114,0.034,0,0c-2.479-0.734-5.061-1.116-7.648-1.107H441.689l0,0c-2.588-0.009-5.17,0.373-7.648,1.107
		c-0.098,0.029,0.098-0.03,0,0v-30.562c0.04-9.438-3.843-18.811-10.544-25.456c-6.646-6.702-16.019-10.584-25.456-10.544h-37.116
		l-57.752,0L299.5,1473.5l739.329,0.3V937.045L971.351,937.046z"/>
	<g id="FC9C4A11_1_" display="inline">
		<g>
			<path fill="#BFBF5A" d="M434.041,1003.607v-30.402c0.039-9.39-3.739-18.713-10.258-25.324c-0.095-0.098-0.19-0.195-0.286-0.292
				V703.698h485.281V947.59v-0.109c-0.036,0.036-0.072,0.072-0.108,0.109c-6.701,6.646-10.584,16.018-10.544,25.456v30.562
				l0.108,0.095c-0.105-0.032-0.21-0.064-0.315-0.095c-2.479-0.734-5.061-1.116-7.648-1.107H441.375l0,0
				c-2.543-0.009-5.081,0.359-7.52,1.069"/>
		</g>
	</g>
</g>
<g id="shadows__x28_base_x29_" display="none">
</g>
<g id="full_back" display="none">
	<g id="_x36_8706741_2_">
		
			<image display="inline" overflow="visible" opacity="0.82" width="683" height="821" xlink:href="E3B33A87.png"  transform="matrix(1 0 0 1 324.5 638.5)">
		</image>
		<g display="inline">
			<linearGradient id="SVGID_1_" gradientUnits="userSpaceOnUse" x1="665.8101" y1="1410.7383" x2="665.81" y2="663.4497">
				<stop  offset="0" style="stop-color:#D9D8AF"/>
				<stop  offset="0.2891" style="stop-color:#E7E6C3"/>
				<stop  offset="0.7327" style="stop-color:#F8F7DD"/>
				<stop  offset="1" style="stop-color:#FFFEE6"/>
			</linearGradient>
			<path fill="url(#SVGID_1_)" d="M360.597,896.678c14.001-68.158,28.002-136.315,42.003-204.473
				c1.631-8.053,6.131-15.482,12.513-20.656c6.353-5.21,14.535-8.123,22.751-8.1c151.964,0,303.929,0,455.893,0
				c8.216-0.023,16.398,2.89,22.751,8.1c6.382,5.174,10.882,12.604,12.513,20.656c14.001,68.157,28.002,136.314,42.003,204.473
				v0.231v26.731v487.098H360.597V923.641v-26.731"/>
		</g>
	</g>
	<linearGradient id="SVGID_2_" gradientUnits="userSpaceOnUse" x1="666.1382" y1="1361.5" x2="666.1382" y2="703.6987">
		<stop  offset="0.5471" style="stop-color:#BFAF1B"/>
		<stop  offset="0.9059" style="stop-color:#DBCC3F"/>
		<stop  offset="1" style="stop-color:#E3D449"/>
	</linearGradient>
	<polygon fill="url(#SVGID_2_)" points="423.497,703.698 423.497,915.775 423.497,947.59 423.497,1361.5 908.778,1361.5 
		908.778,947.59 908.778,947.481 908.778,915.775 908.778,703.698 	"/>
</g>
<g id="back" display="none">
	<g display="inline">
		<linearGradient id="SVGID_3_" gradientUnits="userSpaceOnUse" x1="665.8101" y1="1003.6074" x2="665.8101" y2="663.4492">
			<stop  offset="0" style="stop-color:#D9D8AF"/>
			<stop  offset="0.2891" style="stop-color:#E7E6C3"/>
			<stop  offset="0.7327" style="stop-color:#F8F7DD"/>
			<stop  offset="1" style="stop-color:#FFFEE6"/>
		</linearGradient>
		<path fill="url(#SVGID_3_)" d="M360.925,937.046h37.116c9.438-0.04,18.811,3.842,25.456,10.544
			c6.701,6.646,10.584,16.018,10.544,25.456v30.561c0.024-0.007,0.049-0.015,0,0c2.479-0.734,5.061-1.116,7.648-1.107h448.896
			c2.588-0.009,5.17,0.373,7.648,1.107c-0.057-0.018-0.028-0.009,0-0.001v-30.561c-0.04-9.438,3.843-18.811,10.544-25.456
			c6.646-6.702,16.019-10.584,25.456-10.544h36.788v-13.405v-26.731v-0.231c-14.001-68.158-28.002-136.315-42.003-204.473
			c-1.631-8.053-6.131-15.482-12.513-20.656c-6.353-5.21-14.535-8.123-22.751-8.1c-151.964,0-303.929,0-455.893,0
			c-8.216-0.023-16.398,2.89-22.751,8.1c-6.382,5.174-10.882,12.604-12.513,20.656c-14.001,68.157-28.002,136.314-42.003,204.473
			v0.231v26.731v13.405H360.925z"/>
		<linearGradient id="SVGID_4_" gradientUnits="userSpaceOnUse" x1="898.251" y1="1003.6167" x2="898.251" y2="1003.6064">
			<stop  offset="0" style="stop-color:#C9C8A2"/>
			<stop  offset="0.2793" style="stop-color:#DCDBB1"/>
			<stop  offset="0.729" style="stop-color:#F6F4C5"/>
			<stop  offset="1" style="stop-color:#FFFDCC"/>
		</linearGradient>
		<path fill="url(#SVGID_4_)" d="M898.234,1003.606L898.234,1003.606C898.291,1003.624,898.263,1003.615,898.234,1003.606z"/>
		<linearGradient id="SVGID_5_" gradientUnits="userSpaceOnUse" x1="434.0269" y1="1003.6157" x2="434.0269" y2="1003.6069">
			<stop  offset="0" style="stop-color:#C9C8A2"/>
			<stop  offset="0.2793" style="stop-color:#DCDBB1"/>
			<stop  offset="0.729" style="stop-color:#F6F4C5"/>
			<stop  offset="1" style="stop-color:#FFFDCC"/>
		</linearGradient>
		<path fill="url(#SVGID_5_)" d="M434.041,1003.607L434.041,1003.607C434.017,1003.614,433.992,1003.622,434.041,1003.607z"/>
	</g>
	<g id="FC9C4A11_2_" display="inline">
		<g>
			<linearGradient id="SVGID_6_" gradientUnits="userSpaceOnUse" x1="666.1382" y1="1003.7026" x2="666.1382" y2="703.6982">
				<stop  offset="0" style="stop-color:#BFAF1B"/>
				<stop  offset="1" style="stop-color:#E3D449"/>
			</linearGradient>
			<path fill="url(#SVGID_6_)" d="M434.041,1003.607v-30.402c0.039-9.39-3.739-18.713-10.258-25.324
				c-0.095-0.098-0.19-0.195-0.286-0.292V703.698h485.281V947.59v-0.109c-0.036,0.036-0.072,0.072-0.108,0.109
				c-6.701,6.646-10.584,16.018-10.544,25.456v30.562l0.108,0.095c-0.105-0.032-0.21-0.064-0.315-0.095
				c-2.479-0.734-5.061-1.116-7.648-1.107H441.375l0,0c-2.543-0.009-5.081,0.359-7.52,1.069"/>
		</g>
	</g>
</g>
<g id="card" display="none">
	
		<image display="inline" overflow="visible" width="600" height="500" xlink:href="../mockup/AIS-holiday2011_slide1.jpg"  transform="matrix(1 0 0 1 364.8096 900.9072)">
	</image>
</g>
<g id="front" display="none">
	<g id="solids_1_">
		<g display="inline">
			<linearGradient id="SVGID_7_" gradientUnits="userSpaceOnUse" x1="434.0552" y1="1003.6074" x2="434.0552" y2="1003.5986">
				<stop  offset="0" style="stop-color:#D9D8AF"/>
				<stop  offset="0.2891" style="stop-color:#E7E6C3"/>
				<stop  offset="0.7327" style="stop-color:#F8F7DD"/>
				<stop  offset="1" style="stop-color:#FFFEE6"/>
			</linearGradient>
			<path fill="url(#SVGID_7_)" d="M434.041,1003.607L434.041,1003.607C434.09,1003.592,434.065,1003.6,434.041,1003.607z"/>
			<linearGradient id="SVGID_8_" gradientUnits="userSpaceOnUse" x1="665.8101" y1="1410.7383" x2="665.8101" y2="937.0459">
				<stop  offset="0" style="stop-color:#D9D8AF"/>
				<stop  offset="0.2891" style="stop-color:#E7E6C3"/>
				<stop  offset="0.7327" style="stop-color:#F8F7DD"/>
				<stop  offset="1" style="stop-color:#FFFEE6"/>
			</linearGradient>
			<path fill="url(#SVGID_8_)" d="M971.022,937.046h-36.788c-9.438-0.04-18.811,3.842-25.456,10.544
				c-6.701,6.646-10.584,16.018-10.544,25.456v30.561c0.028,0.009,0.057,0.018,0,0.001c-2.479-0.734-5.061-1.116-7.648-1.107
				H441.689c-2.588-0.009-5.17,0.373-7.648,1.107c-0.049,0.015-0.024,0.007,0,0v-30.561c0.04-9.438-3.843-18.811-10.544-25.456
				c-6.646-6.702-16.019-10.584-25.456-10.544h-37.116h-0.328v473.692h610.426V937.046z"/>
			<linearGradient id="SVGID_9_" gradientUnits="userSpaceOnUse" x1="898.2178" y1="1003.6074" x2="898.2178" y2="1003.5972">
				<stop  offset="0" style="stop-color:#D9D8AF"/>
				<stop  offset="0.2891" style="stop-color:#E7E6C3"/>
				<stop  offset="0.7327" style="stop-color:#F8F7DD"/>
				<stop  offset="1" style="stop-color:#FFFEE6"/>
			</linearGradient>
			<path fill="url(#SVGID_9_)" d="M898.234,1003.607L898.234,1003.607C898.206,1003.598,898.178,1003.59,898.234,1003.607z"/>
		</g>
	</g>
	<g id="shadows_1_">
		<path display="inline" fill="none" stroke="#000000" stroke-linecap="square" stroke-miterlimit="10" d="M968.446,1409.304"/>
		<path display="inline" fill="none" stroke="#000000" stroke-linecap="square" stroke-miterlimit="10" d="M974.255,1407.798"/>
		<path display="inline" fill="none" stroke="#000000" stroke-linecap="square" stroke-miterlimit="10" d="M358.021,1407.798"/>
		<path display="inline" fill="none" stroke="#000000" stroke-linecap="square" stroke-miterlimit="10" d="M363.829,1409.304"/>
		<g display="inline" opacity="0.6">
			<path opacity="0" fill="none" stroke="#000000" stroke-linecap="square" stroke-miterlimit="10" d="M361.586,1394.418
				l11.584-45.057l38.732-323.429c0.837-7.196,4.44-14.08,9.882-18.878c3.222-2.878,7.17-5.069,11.404-6.323
				c2.79-0.826,5.671-1.223,8.511-1.231h448.886c0.032,0,0.065,0,0.098,0c2.815,0,5.646,0.414,8.403,1.231
				c4.233,1.254,8.183,3.445,11.419,6.336c5.428,4.785,9.03,11.669,9.868,18.875l38.731,323.419l11.743,45.06"/>
			<path opacity="0.0667" fill="none" stroke="#000000" stroke-linecap="square" stroke-miterlimit="10" d="M361.558,1395.816
				l11.941-46.394l38.735-323.451c0.828-7.118,4.389-13.922,9.771-18.667c3.191-2.851,7.095-5.014,11.278-6.253
				c2.755-0.816,5.604-1.212,8.416-1.218h399.01c0.028,0,49.935,0,49.964,0c2.79-0.001,5.593,0.41,8.319,1.218
				c4.184,1.239,8.088,3.403,11.291,6.265c5.37,4.733,8.931,11.538,9.76,18.665l38.734,323.442l12.071,46.322"/>
			<path opacity="0.1333" fill="none" stroke="#000000" stroke-linecap="square" stroke-miterlimit="10" d="M361.528,1397.215
				l12.299-47.729l38.737-323.474c0.819-7.04,4.339-13.765,9.662-18.457c3.16-2.823,7.019-4.959,11.152-6.184
				c2.721-0.806,5.536-1.2,8.319-1.204h349.134c0.025,0,99.806,0,99.831,0c2.765-0.002,5.539,0.405,8.235,1.204
				c4.134,1.225,7.992,3.361,11.164,6.194c5.312,4.682,8.831,11.407,9.65,18.455l38.737,323.466l12.399,47.583"/>
			<path opacity="0.2" fill="none" stroke="#000000" stroke-linecap="square" stroke-miterlimit="10" d="M361.499,1398.614
				l12.656-49.067l38.74-323.496c0.811-6.962,4.288-13.607,9.551-18.247c3.13-2.796,6.942-4.905,11.027-6.115
				c2.686-0.795,5.467-1.188,8.223-1.19h299.258c0.021,0,149.675,0,149.696,0c2.74-0.003,5.487,0.4,8.152,1.19
				c4.084,1.209,7.897,3.319,11.037,6.124c5.253,4.631,8.73,11.275,9.541,18.245l38.739,323.489l12.729,48.846"/>
			<path opacity="0.2667" fill="none" stroke="#000000" stroke-linecap="square" stroke-miterlimit="10" d="M361.47,1400.013
				l13.013-50.403l38.742-323.519c0.802-6.884,4.237-13.449,9.44-18.036c3.1-2.769,6.868-4.85,10.901-6.045
				c2.651-0.786,5.4-1.176,8.128-1.177h249.381c0.019,0,199.546,0,199.564,0c2.714-0.004,5.434,0.396,8.067,1.177
				c4.034,1.195,7.802,3.276,10.909,6.052c5.195,4.58,8.631,11.146,9.433,18.035l38.742,323.513l13.057,50.106"/>
			<path opacity="0.3333" fill="none" stroke="#000000" stroke-linecap="square" stroke-miterlimit="10" d="M361.441,1401.411
				l13.371-51.74l38.745-323.541c0.792-6.806,4.186-13.291,9.33-17.826c3.069-2.741,6.792-4.795,10.775-5.976
				c2.617-0.775,5.332-1.164,8.032-1.163h199.505c0.015,0,249.416,0,249.43,0c2.689-0.005,5.382,0.392,7.984,1.163
				c3.984,1.18,7.707,3.234,10.782,5.981c5.138,4.529,8.53,11.014,9.323,17.824l38.745,323.536l13.385,51.369"/>
			<path opacity="0.4" fill="none" stroke="#000000" stroke-linecap="square" stroke-miterlimit="10" d="M361.412,1402.81
				l13.728-53.076l38.748-323.563c0.783-6.728,4.135-13.133,9.22-17.615c3.038-2.714,6.715-4.74,10.649-5.906
				c2.582-0.765,5.264-1.151,7.937-1.148h149.628c0.011,0,299.286,0,299.296,0c2.664-0.006,5.329,0.387,7.9,1.148
				c3.934,1.166,7.611,3.192,10.654,5.911c5.079,4.478,8.432,10.883,9.215,17.615l38.747,323.56l13.714,52.63"/>
			<path opacity="0.4667" fill="none" stroke="#000000" stroke-linecap="square" stroke-miterlimit="10" d="M361.383,1404.209
				l14.086-54.414l38.75-323.585c0.774-6.65,4.083-12.976,9.108-17.405c3.007-2.687,6.64-4.686,10.524-5.836
				c2.548-0.755,5.196-1.14,7.84-1.135h99.752c0.007,0,349.156,0,349.163,0c2.639-0.007,5.275,0.382,7.816,1.135
				c3.884,1.15,7.517,3.15,10.527,5.839c5.021,4.427,8.331,10.752,9.105,17.404l38.75,323.583l14.042,53.893"/>
			<path opacity="0.5333" fill="none" stroke="#000000" stroke-linecap="square" stroke-miterlimit="10" d="M361.354,1405.607
				l14.442-55.751l38.753-323.607c0.765-6.572,4.033-12.818,8.999-17.195c2.977-2.659,6.563-4.631,10.398-5.767
				c2.513-0.745,5.128-1.128,7.744-1.121h49.876c0.003,0,399.026,0,399.03,0c2.613-0.008,5.223,0.377,7.732,1.121
				c3.834,1.136,7.421,3.108,10.399,5.769c4.964,4.375,8.232,10.621,8.997,17.194l38.753,323.606l14.37,55.154"/>
			<path opacity="0.6" fill="none" stroke="#000000" stroke-linecap="square" stroke-miterlimit="10" d="M361.325,1407.006
				l14.8-57.087l38.756-323.63c0.756-6.494,3.982-12.66,8.888-16.984c2.946-2.632,6.488-4.576,10.272-5.697
				c2.479-0.734,5.061-1.116,7.648-1.107l0,0h448.896c2.588-0.009,5.17,0.373,7.648,1.107c3.784,1.121,7.326,3.065,10.272,5.697
				c4.905,4.324,8.132,10.49,8.888,16.984l38.756,323.63l14.698,56.416"/>
		</g>
		<path display="inline" fill="none" stroke="#000000" stroke-linecap="square" stroke-miterlimit="10" d="M971.351,940.046"/>
		<path display="inline" fill="none" stroke="#000000" stroke-linecap="square" stroke-miterlimit="10" d="M971.351,940.046"/>
		<path display="inline" fill="none" stroke="#000000" stroke-linecap="square" stroke-miterlimit="10" d="M971.351,934.046"/>
		<path display="inline" fill="none" stroke="#000000" stroke-linecap="square" stroke-miterlimit="10" d="M901.234,1003.607"/>
		<g display="inline" opacity="0.8">
			<path opacity="0" fill="none" stroke="#000000" stroke-linecap="square" stroke-miterlimit="10" d="M895.234,999.5v-26.454
				c-0.044-10.279,4.123-20.338,11.432-27.586c7.228-7.291,17.287-11.452,27.581-11.414h37.104"/>
			<path opacity="0.0711" fill="none" stroke="#000000" stroke-linecap="square" stroke-miterlimit="10" d="M971.351,934.379
				h-37.104c-10.199-0.039-20.183,4.092-27.346,11.317c-7.241,7.182-11.376,17.165-11.333,27.35v26.564"/>
			<path opacity="0.1422" fill="none" stroke="#000000" stroke-linecap="square" stroke-miterlimit="10" d="M971.351,934.713
				h-37.106c-10.104-0.04-20.011,4.06-27.108,11.22c-7.174,7.114-11.278,17.021-11.235,27.113v26.675"/>
			<path opacity="0.2133" fill="none" stroke="#000000" stroke-linecap="square" stroke-miterlimit="10" d="M971.351,935.046
				h-37.107c-10.009-0.039-19.839,4.029-26.873,11.124c-7.106,7.047-11.179,16.877-11.136,26.876v26.785"/>
			<path opacity="0.2844" fill="none" stroke="#000000" stroke-linecap="square" stroke-miterlimit="10" d="M971.351,935.379
				h-37.108c-9.914-0.04-19.668,3.998-26.637,11.027c-7.039,6.98-11.08,16.734-11.037,26.64v26.895"/>
			<path opacity="0.3556" fill="none" stroke="#000000" stroke-linecap="square" stroke-miterlimit="10" d="M971.351,935.712h-37.11
				c-9.818-0.039-19.496,3.967-26.4,10.931c-6.972,6.914-10.98,16.591-10.939,26.403v27.005"/>
			<path opacity="0.4267" fill="none" stroke="#000000" stroke-linecap="square" stroke-miterlimit="10" d="M971.351,936.046
				h-37.112c-9.723-0.039-19.324,3.936-26.164,10.834c-6.904,6.847-10.881,16.447-10.84,26.166v27.116"/>
			<path opacity="0.4978" fill="none" stroke="#000000" stroke-linecap="square" stroke-miterlimit="10" d="M971.351,936.379
				h-37.113c-9.628-0.04-19.153,3.904-25.929,10.737c-6.836,6.779-10.782,16.305-10.741,25.93v27.226"/>
			<path opacity="0.5689" fill="none" stroke="#000000" stroke-linecap="square" stroke-miterlimit="10" d="M971.351,936.713
				h-37.114c-9.533-0.04-18.982,3.873-25.692,10.64c-6.769,6.712-10.684,16.161-10.643,25.693v27.336"/>
			<path opacity="0.64" fill="none" stroke="#000000" stroke-linecap="square" stroke-miterlimit="10" d="M971.351,937.046h-37.116
				c-9.438-0.04-18.811,3.842-25.456,10.544c-6.701,6.646-10.584,16.018-10.544,25.456v27.446"/>
		</g>
		<path display="inline" fill="none" stroke="#000000" stroke-linecap="square" stroke-miterlimit="10" d="M431.041,1003.607"/>
		<path display="inline" fill="none" stroke="#000000" stroke-linecap="square" stroke-miterlimit="10" d="M437.041,1003.607"/>
		<path display="inline" fill="none" stroke="#000000" stroke-linecap="square" stroke-miterlimit="10" d="M360.925,934.046"/>
		<g display="inline" opacity="0.63">
			<path opacity="0" fill="none" stroke="#000000" stroke-linecap="square" stroke-miterlimit="10" d="M360.925,934.046h37.116
				c10.243-0.014,20.339,4.123,27.586,11.432c7.291,7.23,11.457,17.29,11.414,27.581v26.808"/>
			<path opacity="0.0667" fill="none" stroke="#000000" stroke-linecap="square" stroke-miterlimit="10" d="M360.925,934.379h37.116
				c10.153-0.017,20.169,4.092,27.35,11.333c7.225,7.166,11.36,17.148,11.317,27.345v26.879"/>
			<path opacity="0.1333" fill="none" stroke="#000000" stroke-linecap="square" stroke-miterlimit="10" d="M360.925,934.713h37.116
				c10.063-0.021,20,4.06,27.113,11.234c7.159,7.1,11.263,17.007,11.22,27.109v26.95"/>
			<path opacity="0.2" fill="none" stroke="#000000" stroke-linecap="square" stroke-miterlimit="10" d="M360.925,935.046h37.116
				c9.975-0.022,19.83,4.029,26.876,11.136c7.094,7.035,11.166,16.865,11.124,26.873v27.021"/>
			<path opacity="0.2667" fill="none" stroke="#000000" stroke-linecap="square" stroke-miterlimit="10" d="M360.925,935.379h37.116
				c9.885-0.026,19.66,3.998,26.64,11.037c7.029,6.971,11.069,16.725,11.027,26.637v27.091"/>
			<path opacity="0.3333" fill="none" stroke="#000000" stroke-linecap="square" stroke-miterlimit="10" d="M360.925,935.712h37.116
				c9.795-0.028,19.49,3.967,26.403,10.939c6.963,6.905,10.972,16.583,10.93,26.4l0.001,27.162"/>
			<path opacity="0.4" fill="none" stroke="#000000" stroke-linecap="square" stroke-miterlimit="10" d="M360.925,936.046h37.116
				c9.706-0.031,19.32,3.936,26.166,10.84c6.897,6.841,10.875,16.441,10.834,26.164l0,27.234"/>
			<path opacity="0.4667" fill="none" stroke="#000000" stroke-linecap="square" stroke-miterlimit="10" d="M360.925,936.379h37.116
				c9.617-0.034,19.15,3.904,25.929,10.741c6.833,6.775,10.778,16.3,10.738,25.928v27.305"/>
			<path opacity="0.5333" fill="none" stroke="#000000" stroke-linecap="square" stroke-miterlimit="10" d="M360.925,936.713h37.116
				c9.527-0.038,18.98,3.873,25.693,10.642c6.767,6.71,10.681,16.159,10.64,25.692l0,27.375"/>
			<path opacity="0.6" fill="none" stroke="#000000" stroke-linecap="square" stroke-miterlimit="10" d="M360.925,937.046h37.116
				c9.438-0.04,18.811,3.842,25.456,10.544c6.701,6.646,10.584,16.018,10.544,25.456l0,27.447"/>
		</g>
	</g>
</g>
<g id="address_side">
	<g id="Outer_1_">
		<g id="Outer">
			
				<image overflow="visible" opacity="0.82" width="683" height="583" xlink:href="E3B33A80.png"  transform="matrix(1 0 0 1 324.5 876.5)">
			</image>
			<g>
				<linearGradient id="SVGID_10_" gradientUnits="userSpaceOnUse" x1="665.8101" y1="1410.7383" x2="665.8101" y2="900.9077">
					<stop  offset="0" style="stop-color:#D9D8AF"/>
					<stop  offset="0.2891" style="stop-color:#E7E6C3"/>
					<stop  offset="0.7327" style="stop-color:#F8F7DD"/>
					<stop  offset="1" style="stop-color:#FFFEE6"/>
				</linearGradient>
				<polygon fill="url(#SVGID_10_)" points="360.597,900.907 360.597,923.641 360.597,1410.738 971.022,1410.738 971.022,923.641 
					971.022,900.907 				"/>
			</g>
		</g>
		<linearGradient id="SVGID_11_" gradientUnits="userSpaceOnUse" x1="360.5967" y1="1155.8223" x2="971.0225" y2="1155.8223">
			<stop  offset="0" style="stop-color:#000000;stop-opacity:0.12"/>
			<stop  offset="0.0707" style="stop-color:#000000;stop-opacity:0.103"/>
			<stop  offset="0.5" style="stop-color:#000000;stop-opacity:0"/>
			<stop  offset="0.9293" style="stop-color:#000000;stop-opacity:0.103"/>
			<stop  offset="1" style="stop-color:#000000;stop-opacity:0.12"/>
		</linearGradient>
		<rect x="360.597" y="900.907" opacity="0.6" fill="url(#SVGID_11_)" width="610.426" height="509.831"/>
	</g>
	<g id="stamp">
		<g>
			<linearGradient id="SVGID_12_" gradientUnits="userSpaceOnUse" x1="844.667" y1="1068.4595" x2="923.8193" y2="931.3636">
				<stop  offset="0" style="stop-color:#7175CF"/>
				<stop  offset="1" style="stop-color:#C9CBFF"/>
			</linearGradient>
			<rect x="836.41" y="936.132" fill="url(#SVGID_12_)" width="95.668" height="127.561"/>
			<g>
				<defs>
					<rect id="SVGID_13_" x="836.41" y="936.132" width="95.668" height="127.561"/>
				</defs>
				<clipPath id="SVGID_14_">
					<use xlink:href="#SVGID_13_"  overflow="visible"/>
				</clipPath>
				<g clip-path="url(#SVGID_14_)">
					<path fill="none" stroke="#B3F8FF" stroke-width="3" stroke-linejoin="round" stroke-miterlimit="10" d="M906.682,1102.127
						c-7.139,2.74-14.957,1.366-20.823-3.553c-3.786-0.149-7.536-1.354-10.761-3.472c-0.638-0.267-1.271-0.566-1.881-0.896
						c-2.965-1.599-5.516-3.867-7.467-6.627c-1.569-0.487-3.07-1.156-4.49-1.997c-1.604,0.333-3.232,0.468-4.869,0.406
						c-1.497,1.115-3.133,2.017-4.881,2.688c-1.311,0.502-2.682,0.87-4.07,1.094c-0.683,0.108-1.373,0.184-2.062,0.225
						c-3.673,0.931-7.589,0.816-11.238-0.313c-6.966,2.66-14.933,1.285-20.799-3.592c-6.017-5-8.896-12.589-7.761-20.158
						c-1.83-3.428-2.748-7.329-2.623-11.201c-0.105-0.701-0.178-1.407-0.215-2.107c-0.18-3.403,0.425-6.766,1.758-9.828
						c-0.396-1.622-0.607-3.268-0.631-4.924c-1.092-1.248-2.035-2.614-2.824-4.082c-3.042-1.388-5.741-3.481-7.883-6.132
						c-0.44-0.546-0.859-1.12-1.25-1.709c-2.684-2.797-4.609-6.309-5.543-10.082c-5.906-4.864-8.844-12.432-7.718-20.174
						c1.099-7.548,6.101-13.898,13.056-16.58c1.957-3.288,4.791-5.991,8.146-7.754c0.539-0.432,1.103-0.839,1.68-1.211
						c1.18-0.763,2.446-1.407,3.761-1.912c1.748-0.669,3.567-1.094,5.427-1.266c1.176-1.142,2.476-2.13,3.891-2.955
						c0.492-1.576,1.161-3.076,2.002-4.49c-0.396-3.354-0.021-6.747,1.113-9.909c0.234-0.653,0.504-1.302,0.803-1.933
						c0.98-3.732,2.963-7.136,5.676-9.78c1.068-7.58,5.961-13.83,13.102-16.571c7.137-2.738,14.957-1.366,20.822,3.554
						c3.787,0.148,7.538,1.355,10.766,3.475c0.641,0.268,1.271,0.566,1.881,0.896c2.961,1.594,5.512,3.864,7.463,6.623
						c1.568,0.488,3.069,1.156,4.49,1.998c1.603-0.333,3.23-0.468,4.867-0.406c1.498-1.116,3.133-2.018,4.883-2.688
						c1.315-0.506,2.689-0.875,4.086-1.097c0.674-0.108,1.364-0.183,2.055-0.223c3.67-0.927,7.582-0.812,11.229,0.315
						c6.965-2.66,14.932-1.286,20.798,3.589c6.017,5.001,8.897,12.592,7.761,20.159c1.83,3.429,2.75,7.328,2.623,11.201
						c0.106,0.701,0.179,1.405,0.217,2.102c0.18,3.406-0.425,6.771-1.76,9.834c0.398,1.62,0.608,3.269,0.631,4.926
						c1.092,1.247,2.037,2.611,2.826,4.082c3.04,1.385,5.739,3.479,7.881,6.128c0.443,0.55,0.861,1.124,1.25,1.711
						c2.686,2.795,4.611,6.31,5.544,10.082c5.907,4.866,8.843,12.434,7.718,20.175c-1.099,7.548-6.101,13.899-13.056,16.582
						c-1.958,3.284-4.79,5.986-8.144,7.75c-0.541,0.432-1.104,0.838-1.68,1.21c-1.182,0.765-2.449,1.409-3.764,1.914
						c-1.748,0.67-3.567,1.095-5.426,1.267c-1.176,1.142-2.476,2.128-3.889,2.953c-0.492,1.577-1.162,3.08-2.004,4.492
						c0.396,3.354,0.02,6.743-1.112,9.903c-0.235,0.659-0.505,1.311-0.804,1.941c-0.983,3.729-2.965,7.134-5.677,9.777
						C918.715,1093.136,913.821,1099.387,906.682,1102.127z"/>
					<path fill="none" stroke="#5F83FF" stroke-width="3" stroke-linejoin="round" stroke-miterlimit="10" d="M905.133,1098.092
						c-6.199,2.38-13.039,0.829-17.741-3.827c-3.646,0.186-7.308-0.858-10.401-2.995c-0.639-0.249-1.267-0.541-1.874-0.865
						c-2.818-1.519-5.162-3.802-6.782-6.564c-2.309-0.503-4.486-1.487-6.407-2.891c-2.253,0.707-4.599,0.913-6.926,0.617
						c-1.478,1.318-3.186,2.365-5.039,3.076c-1.05,0.403-2.146,0.696-3.257,0.875c-0.675,0.108-1.36,0.174-2.043,0.198
						c-3.545,0.992-7.326,0.756-10.745-0.643c-0.423,0.207-0.855,0.394-1.295,0.562c-5.579,2.141-11.964,1.044-16.664-2.864
						c-5.224-4.342-7.448-11.147-5.933-17.56c-2.041-3.145-3.053-6.89-2.842-10.654c-0.119-0.689-0.199-1.388-0.236-2.082
						c-0.17-3.241,0.551-6.426,2.058-9.196c-0.766-2.283-1.06-4.681-0.866-7.047c-1.727-1.629-3.111-3.607-4.069-5.814
						c-2.974-1.054-5.644-2.938-7.681-5.462c-0.438-0.541-0.847-1.113-1.219-1.706c-2.675-2.658-4.428-6.117-5.014-9.817
						c-5.415-3.754-8.316-10.302-7.339-17.022c0.88-6.049,4.894-11.136,10.472-13.277c0.439-0.166,0.885-0.317,1.336-0.447
						c1.607-3.327,4.259-6.034,7.561-7.667c0.523-0.439,1.075-0.849,1.646-1.216c0.945-0.613,1.959-1.129,3.01-1.531
						c1.854-0.712,3.824-1.077,5.805-1.083c1.531-1.777,3.413-3.194,5.56-4.177c0.487-2.326,1.449-4.516,2.829-6.433
						c-0.645-3.138-0.43-6.402,0.648-9.411c0.233-0.649,0.508-1.286,0.816-1.902c0.871-3.659,2.894-6.883,5.727-9.186
						c0.381-6.605,4.428-12.334,10.628-14.713c6.199-2.379,13.039-0.828,17.742,3.827c3.646-0.186,7.308,0.857,10.401,2.997
						c0.642,0.251,1.27,0.54,1.874,0.866c2.817,1.516,5.162,3.799,6.783,6.562c2.308,0.505,4.485,1.487,6.405,2.891
						c2.252-0.706,4.598-0.912,6.926-0.616c1.477-1.319,3.186-2.364,5.039-3.077c1.055-0.404,2.153-0.699,3.27-0.877
						c0.67-0.107,1.352-0.173,2.035-0.196c3.547-0.987,7.324-0.749,10.74,0.645c0.424-0.206,0.855-0.394,1.295-0.563
						c5.578-2.14,11.963-1.044,16.663,2.863c5.226,4.343,7.448,11.149,5.935,17.562c2.041,3.145,3.051,6.888,2.842,10.651
						c0.119,0.688,0.199,1.387,0.234,2.078c0.174,3.243-0.55,6.43-2.055,9.203c0.763,2.279,1.057,4.678,0.865,7.043
						c1.726,1.631,3.11,3.609,4.068,5.816c2.975,1.054,5.643,2.938,7.682,5.46c0.438,0.546,0.847,1.116,1.218,1.707
						c2.675,2.657,4.429,6.118,5.014,9.818c5.415,3.755,8.316,10.301,7.339,17.022c-0.881,6.049-4.894,11.137-10.471,13.277
						c-0.439,0.167-0.885,0.318-1.338,0.447c-1.607,3.327-4.257,6.033-7.557,7.666c-0.525,0.439-1.077,0.849-1.646,1.215
						c-0.947,0.613-1.962,1.13-3.013,1.533c-1.854,0.711-3.824,1.076-5.805,1.083c-1.53,1.777-3.413,3.193-5.558,4.175
						c-0.488,2.328-1.45,4.518-2.83,6.435c0.645,3.138,0.428,6.398-0.648,9.408c-0.233,0.651-0.508,1.29-0.817,1.906
						c-0.872,3.659-2.896,6.884-5.726,9.185C915.381,1089.985,911.334,1095.713,905.133,1098.092z"/>
					<path fill="none" stroke="#B3F8FF" stroke-width="3" stroke-linejoin="round" stroke-miterlimit="10" d="M903.586,1094.058
						c-5.248,2.014-11.148,0.228-14.59-4.339c-3.483,0.735-7.138-0.072-10.103-2.295c-0.645-0.223-1.273-0.499-1.876-0.822
						c-2.738-1.475-4.824-3.874-5.957-6.704c-3.113-0.191-6.141-1.549-8.415-3.901c-0.409,0.214-0.838,0.407-1.272,0.573
						c-2.546,0.977-5.281,1.068-7.839,0.328c-1.345,1.648-3.095,2.935-5.12,3.71c-0.786,0.303-1.608,0.523-2.441,0.658
						c-0.67,0.106-1.348,0.157-2.027,0.154c-3.467,1.121-7.187,0.637-10.26-1.203c-0.811,0.565-1.688,1.03-2.611,1.384
						c-4.184,1.605-8.973,0.783-12.498-2.147c-4.421-3.674-5.959-9.762-3.869-15.013c-2.396-2.704-3.633-6.343-3.28-10.054
						c-0.146-0.68-0.236-1.37-0.273-2.061c-0.167-3.154,0.786-6.163,2.601-8.533c-1.443-2.85-1.859-6.181-1.049-9.312
						c-2.697-1.785-4.615-4.539-5.449-7.623c-2.934-0.549-5.657-2.146-7.641-4.604c-0.436-0.539-0.83-1.113-1.176-1.714
						c-2.746-2.526-4.26-6.055-4.287-9.666c-5.068-2.507-7.996-8.062-7.169-13.75c0.661-4.535,3.671-8.35,7.854-9.956
						c0.924-0.354,1.885-0.595,2.867-0.717c1.051-3.429,3.492-6.278,6.82-7.758c0.502-0.458,1.039-0.872,1.606-1.238
						c0.71-0.459,1.47-0.845,2.259-1.148c2.026-0.777,4.187-0.994,6.289-0.669c1.405-2.26,3.5-4.022,6.045-5
						c0.432-0.166,0.879-0.308,1.33-0.425c0.115-3.269,1.459-6.303,3.645-8.528c-1.051-2.862-1.105-6.038-0.057-8.966
						c0.231-0.645,0.515-1.271,0.845-1.868c0.719-3.636,2.894-6.683,5.974-8.465c-0.498-5.696,2.693-10.97,7.941-12.984
						c5.246-2.013,11.148-0.227,14.589,4.34c3.484-0.737,7.139,0.072,10.104,2.296c0.645,0.223,1.272,0.498,1.874,0.821
						c2.741,1.476,4.824,3.873,5.959,6.704c3.111,0.191,6.141,1.548,8.415,3.899c0.411-0.213,0.838-0.406,1.271-0.572
						c2.546-0.978,5.282-1.067,7.84-0.328c1.344-1.647,3.095-2.933,5.121-3.709c0.789-0.303,1.614-0.525,2.451-0.659
						c0.666-0.106,1.341-0.158,2.018-0.153c3.475-1.119,7.189-0.634,10.26,1.203c0.81-0.565,1.686-1.028,2.611-1.383
						c4.184-1.606,8.973-0.783,12.498,2.146c4.42,3.677,5.959,9.764,3.869,15.015c2.395,2.704,3.631,6.342,3.279,10.053
						c0.145,0.68,0.237,1.368,0.274,2.057c0.167,3.157-0.786,6.167-2.603,8.537c1.445,2.851,1.861,6.181,1.051,9.312
						c2.697,1.783,4.615,4.538,5.449,7.623c2.934,0.548,5.656,2.146,7.641,4.604c0.436,0.539,0.828,1.113,1.176,1.713
						c2.745,2.524,4.259,6.056,4.287,9.667c5.066,2.506,7.995,8.062,7.168,13.749c-0.66,4.537-3.67,8.352-7.854,9.957
						c-0.924,0.354-1.885,0.595-2.867,0.718c-1.053,3.426-3.494,6.275-6.82,7.757c-0.5,0.454-1.037,0.869-1.604,1.236
						c-0.714,0.461-1.475,0.848-2.262,1.151c-2.025,0.776-4.188,0.993-6.289,0.666c-1.406,2.262-3.501,4.024-6.047,5.001
						c-0.432,0.165-0.877,0.309-1.327,0.424c-0.116,3.27-1.46,6.306-3.646,8.53c1.051,2.861,1.104,6.036,0.058,8.964
						c-0.231,0.646-0.515,1.271-0.845,1.869c-0.723,3.641-2.896,6.683-5.976,8.465
						C912.024,1086.77,908.832,1092.044,903.586,1094.058z"/>
					<path fill="none" stroke="#5F83FF" stroke-width="3" stroke-linejoin="round" stroke-miterlimit="10" d="M902.037,1090.022
						c-3.638,1.397-7.748,0.053-9.994-3.267l-1.498-2.215c-0.391,0.229-0.799,0.426-1.218,0.586
						c-2.705,1.038-5.722,0.583-8.07-1.221c-0.151-0.117-0.3-0.238-0.444-0.364c-0.652-0.17-1.289-0.418-1.891-0.743
						c-2.83-1.522-4.54-4.501-4.609-7.603c-3.065,1.03-6.475,0.161-8.771-2.267c-0.915-0.969-1.573-2.11-1.968-3.325
						c-0.719,1.023-1.67,1.889-2.816,2.504c-0.299,0.161-0.612,0.303-0.932,0.428c-2.723,1.043-5.762,0.529-8.049-1.212
						c-0.762,2.378-2.533,4.337-4.912,5.249c-0.523,0.201-1.07,0.349-1.629,0.438c-0.668,0.105-1.344,0.13-2.016,0.071
						c-0.071,0.029-0.144,0.059-0.216,0.086c-0.099,0.037-0.2,0.076-0.302,0.109c-3.193,1.082-6.762,0.072-9.021-2.506l-2.055,1.604
						c-0.639,0.5-1.347,0.9-2.101,1.19c-2.79,1.07-5.983,0.52-8.333-1.433c-3.064-2.548-4.051-6.835-2.4-10.428l1.102-2.396
						c-2.927-1.733-4.63-5.106-4.266-8.531c0.02-0.19,0.047-0.381,0.078-0.568c-0.193-0.662-0.312-1.348-0.348-2.035
						c-0.172-3.226,1.42-6.188,4.058-7.758c-2.39-2.179-3.49-5.626-2.614-8.853c0.34-1.255,0.96-2.396,1.787-3.344
						c-1.25-0.152-2.474-0.585-3.565-1.29c-2.81-1.812-4.298-5.111-3.978-8.328c-3.012,0.598-6.178-0.54-8.207-3.053
						c-0.435-0.539-0.805-1.124-1.103-1.747c-0.148-0.118-0.294-0.24-0.438-0.369c-2.562-2.301-3.553-5.949-2.536-9.193
						l-2.423-1.045c-3.629-1.565-5.764-5.413-5.189-9.356c0.439-3.023,2.446-5.568,5.236-6.637c0.754-0.291,1.547-0.466,2.356-0.522
						l2.601-0.182c-0.047-3.428,1.932-6.563,5.021-7.896c0.105-0.045,0.206-0.086,0.305-0.123c0.073-0.027,0.146-0.055,0.219-0.081
						c0.459-0.491,0.979-0.926,1.543-1.293c0.475-0.306,0.981-0.563,1.507-0.765c2.378-0.913,5.005-0.644,7.163,0.614
						c0.535-2.824,2.449-5.239,5.171-6.284c0.319-0.122,0.648-0.224,0.979-0.306c1.264-0.31,2.549-0.303,3.769-0.023
						c-0.519-1.165-0.794-2.456-0.761-3.788c0.082-3.34,2.033-6.267,5.002-7.551c-2.023-2.351-2.744-5.709-1.661-8.734
						c0.231-0.645,0.538-1.254,0.91-1.817c0.023-0.189,0.052-0.378,0.086-0.567c0.539-2.913,2.476-5.269,5.181-6.308
						c0.42-0.16,0.855-0.287,1.298-0.379l-0.368-2.647c-0.551-3.971,1.605-7.719,5.244-9.115c3.638-1.396,7.747-0.052,9.992,3.269
						l1.5,2.215c0.389-0.229,0.797-0.426,1.217-0.587c2.705-1.038,5.721-0.582,8.069,1.221c0.152,0.116,0.302,0.239,0.444,0.365
						c0.656,0.171,1.291,0.418,1.893,0.741c2.829,1.524,4.539,4.504,4.607,7.604c3.066-1.03,6.475-0.161,8.77,2.267
						c0.916,0.967,1.574,2.109,1.969,3.325c0.721-1.023,1.671-1.889,2.816-2.504c0.299-0.161,0.613-0.305,0.934-0.428
						c2.722-1.045,5.762-0.53,8.049,1.212c0.762-2.38,2.533-4.337,4.912-5.25c0.524-0.2,1.074-0.348,1.633-0.439
						c0.664-0.104,1.34-0.128,2.01-0.071c0.074-0.028,0.145-0.058,0.217-0.085c0.1-0.038,0.199-0.075,0.301-0.109
						c3.196-1.079,6.764-0.071,9.023,2.507l2.055-1.605c0.639-0.497,1.346-0.898,2.102-1.188c2.789-1.07,5.981-0.521,8.331,1.432
						c3.064,2.547,4.052,6.835,2.401,10.427l-1.102,2.396c2.928,1.734,4.629,5.108,4.265,8.532c-0.021,0.19-0.048,0.38-0.079,0.567
						c0.194,0.663,0.312,1.345,0.351,2.034c0.171,3.228-1.423,6.189-4.061,7.761c2.392,2.177,3.491,5.624,2.616,8.853
						c-0.342,1.254-0.961,2.395-1.789,3.344c1.251,0.151,2.475,0.585,3.566,1.29c2.809,1.812,4.298,5.11,3.978,8.328
						c3.011-0.598,6.178,0.539,8.208,3.051c0.434,0.539,0.803,1.125,1.102,1.748c0.148,0.116,0.295,0.239,0.438,0.366
						c2.563,2.303,3.555,5.951,2.537,9.196l2.424,1.046c3.629,1.565,5.764,5.413,5.189,9.356c-0.441,3.022-2.446,5.567-5.235,6.638
						c-0.755,0.289-1.548,0.464-2.358,0.521l-2.6,0.183c0.045,3.429-1.934,6.565-5.023,7.895c-0.104,0.046-0.204,0.085-0.305,0.123
						c-0.072,0.029-0.145,0.056-0.217,0.08c-0.459,0.493-0.977,0.927-1.541,1.294c-0.479,0.309-0.986,0.566-1.51,0.767
						c-2.377,0.913-5.004,0.643-7.163-0.616c-0.534,2.825-2.45,5.24-5.172,6.284c-0.318,0.123-0.648,0.226-0.979,0.307
						c-1.262,0.31-2.547,0.302-3.768,0.022c0.52,1.168,0.795,2.457,0.761,3.79c-0.079,3.338-2.031,6.265-5.002,7.549
						c2.022,2.352,2.745,5.709,1.662,8.733c-0.23,0.644-0.538,1.254-0.911,1.817c-0.021,0.192-0.051,0.381-0.086,0.57
						c-0.539,2.912-2.477,5.269-5.181,6.307c-0.422,0.161-0.856,0.288-1.298,0.378l0.367,2.648
						C907.831,1084.88,905.676,1088.627,902.037,1090.022z"/>
					<path fill="none" stroke="#B3F8FF" stroke-width="3" stroke-linejoin="round" stroke-miterlimit="10" d="M900.489,1085.988
						c-1.813,0.695-3.878,0.021-4.997-1.633l-3.854-5.696l-3.071,2.029c-0.251,0.165-0.517,0.301-0.789,0.404
						c-1.325,0.51-2.852,0.3-4.034-0.609c-0.365-0.281-0.678-0.613-0.933-0.979c-0.67-0.001-1.351-0.164-1.985-0.505
						c-1.877-1.012-2.764-3.268-2.076-5.286l1.049-3.085c-1.115-0.19-2.152-0.833-2.84-1.852c-0.055-0.083-0.109-0.169-0.16-0.256
						l-2.771,2.016c-0.296,0.212-0.611,0.383-0.938,0.51c-1.539,0.59-3.339,0.201-4.548-1.076c-1.465-1.551-1.618-3.941-0.363-5.619
						l1.794-2.396l-2.936-0.581c-0.809-0.16-1.531-0.549-2.105-1.093c-0.084,0.039-0.168,0.073-0.254,0.106
						c-0.638,0.244-1.342,0.332-2.061,0.228l-2.957-0.432l1.026,2.88c0.72,2.018-0.107,4.24-1.94,5.225
						c-0.154,0.081-0.311,0.152-0.469,0.213c-1.74,0.67-3.759,0.07-4.91-1.515l-2.064-2.845c-0.072,0.065-0.146,0.129-0.225,0.189
						c-0.328,0.257-0.684,0.457-1.055,0.6c-0.696,0.268-1.446,0.334-2.171,0.211l0.122,3.283c0.07,1.856-1.025,3.487-2.658,4.113
						c-0.259,0.101-0.532,0.176-0.816,0.221c-0.7,0.112-1.395,0.04-2.033-0.186c-0.305,0.232-0.643,0.422-1.01,0.562
						c-0.051,0.02-0.103,0.038-0.154,0.056c-1.668,0.565-3.523-0.002-4.646-1.42l-2.346-2.96l-5.283,4.126
						c-0.325,0.255-0.68,0.454-1.049,0.596c-1.372,0.526-2.966,0.283-4.167-0.716c-1.526-1.269-2.022-3.425-1.2-5.213l2.833-6.164
						l-3.309-1.74c-1.584-0.832-2.51-2.578-2.319-4.37c0.049-0.458,0.168-0.894,0.348-1.298c-0.347-0.593-0.561-1.275-0.6-2.003
						c-0.1-1.878,0.996-3.547,2.654-4.183c0.239-0.092,0.49-0.16,0.751-0.208l3.157-0.56c-0.416-1.079-0.408-2.309,0.1-3.407
						c0.041-0.091,0.086-0.18,0.134-0.267l-3.141-1.481c-1.909-0.902-2.913-3.085-2.356-5.13c0.36-1.335,1.317-2.35,2.514-2.808
						c0.636-0.244,1.338-0.333,2.059-0.228l2.957,0.432l-1.025-2.88c-0.283-0.793-0.327-1.621-0.163-2.393
						c-0.638-0.464-1.158-1.108-1.479-1.888l-1.164-2.826l-1.91,2.298c-0.463,0.561-1.047,0.966-1.682,1.21
						c-1.196,0.459-2.586,0.345-3.747-0.406c-1.781-1.148-2.496-3.441-1.68-5.391l1.343-3.201c-0.094-0.033-0.186-0.068-0.277-0.105
						c-1.111-0.48-1.94-1.39-2.354-2.469l-2.721,1.693c-0.225,0.142-0.458,0.257-0.697,0.349c-1.656,0.637-3.589,0.132-4.771-1.333
						c-0.457-0.565-0.754-1.216-0.895-1.889c-0.402-0.18-0.783-0.425-1.126-0.732c-1.339-1.204-1.819-3.121-1.198-4.801l1.295-3.506
						l-6.229-2.685c-1.808-0.78-2.88-2.715-2.596-4.68c0.226-1.546,1.247-2.792,2.618-3.318c0.371-0.142,0.766-0.232,1.179-0.261
						l6.688-0.467l-0.237-3.769c-0.112-1.805,0.887-3.468,2.504-4.166c0.051-0.021,0.102-0.041,0.152-0.061
						c0.367-0.141,0.745-0.225,1.127-0.258c0.323-0.594,0.791-1.111,1.387-1.497c0.242-0.157,0.495-0.284,0.755-0.383
						c1.632-0.626,3.538-0.147,4.728,1.278l2.106,2.523c0.456-0.576,1.058-1.028,1.753-1.295c0.372-0.143,0.77-0.231,1.186-0.262
						c0.098-0.006,0.196-0.008,0.295-0.008l-0.369-3.496c-0.205-1.947,0.895-3.744,2.635-4.412c0.16-0.061,0.324-0.11,0.493-0.153
						c2.021-0.494,4.121,0.604,4.937,2.585l1.164,2.828l1.909-2.301c0.464-0.557,1.046-0.963,1.683-1.207
						c0.086-0.034,0.172-0.064,0.261-0.091c0.063-0.789,0.341-1.562,0.834-2.222l1.794-2.396l-2.937-0.581
						c-2.056-0.407-3.542-2.288-3.489-4.422c0.044-1.756,1.122-3.25,2.66-3.841c0.328-0.124,0.676-0.211,1.039-0.247l3.408-0.356
						c-0.021-0.099-0.039-0.198-0.053-0.297c-0.171-1.218,0.172-2.389,0.873-3.276l-2.844-1.59c-1.861-1.041-2.713-3.313-1.994-5.32
						c0.244-0.677,0.641-1.255,1.139-1.703c-0.056-0.442-0.045-0.899,0.038-1.351c0.271-1.467,1.265-2.645,2.591-3.154
						c0.271-0.104,0.559-0.182,0.856-0.226l3.641-0.545l-0.946-6.814c-0.274-1.976,0.81-3.86,2.622-4.555
						c1.812-0.695,3.878-0.021,4.996,1.632l3.854,5.697l3.07-2.029c0.252-0.166,0.518-0.301,0.789-0.405
						c1.326-0.509,2.852-0.299,4.035,0.61c0.364,0.28,0.677,0.613,0.932,0.979c0.671-0.001,1.352,0.163,1.986,0.504
						c1.877,1.011,2.764,3.27,2.075,5.287l-1.05,3.086c1.115,0.19,2.154,0.831,2.841,1.851c0.056,0.083,0.11,0.169,0.159,0.255
						l2.772-2.012c0.295-0.217,0.61-0.386,0.938-0.513c1.538-0.59,3.339-0.201,4.547,1.075c1.466,1.551,1.62,3.942,0.364,5.621
						l-1.794,2.396l2.936,0.58c0.81,0.16,1.531,0.55,2.106,1.094c0.082-0.039,0.167-0.073,0.253-0.107
						c0.638-0.243,1.342-0.331,2.06-0.227l2.959,0.432l-1.027-2.881c-0.719-2.019,0.107-4.239,1.941-5.224
						c0.152-0.081,0.309-0.153,0.468-0.215c1.739-0.667,3.759-0.068,4.909,1.517l2.066,2.844c0.071-0.064,0.146-0.129,0.223-0.188
						c0.33-0.258,0.684-0.457,1.057-0.6c0.695-0.268,1.445-0.333,2.172-0.207l-0.123-3.289c-0.07-1.855,1.025-3.486,2.657-4.112
						c0.261-0.1,0.533-0.175,0.819-0.22c0.698-0.112,1.393-0.04,2.03,0.184c0.306-0.229,0.644-0.42,1.011-0.561
						c0.051-0.02,0.102-0.038,0.153-0.058c1.669-0.562,3.524,0.006,4.647,1.422l2.344,2.96l5.284-4.126
						c0.325-0.255,0.68-0.453,1.05-0.595c1.373-0.527,2.965-0.284,4.166,0.715c1.527,1.271,2.023,3.424,1.201,5.215l-2.834,6.161
						l3.309,1.74c1.584,0.834,2.511,2.579,2.319,4.371c-0.049,0.457-0.167,0.895-0.347,1.297c0.347,0.594,0.561,1.276,0.6,2.003
						c0.1,1.879-0.998,3.547-2.654,4.182c-0.24,0.093-0.49,0.162-0.752,0.208l-3.157,0.562c0.415,1.078,0.409,2.308-0.099,3.409
						c-0.042,0.089-0.086,0.178-0.134,0.264l3.14,1.482c1.91,0.9,2.912,3.084,2.356,5.129c-0.361,1.336-1.317,2.351-2.514,2.81
						c-0.636,0.244-1.339,0.332-2.059,0.227l-2.958-0.432l1.026,2.88c0.283,0.794,0.327,1.621,0.163,2.393
						c0.637,0.464,1.158,1.108,1.479,1.888l1.164,2.826l1.909-2.299c0.465-0.559,1.047-0.963,1.683-1.208
						c1.196-0.459,2.585-0.346,3.747,0.405c1.781,1.148,2.497,3.441,1.68,5.391l-1.342,3.201c0.093,0.032,0.185,0.068,0.275,0.108
						c1.113,0.477,1.941,1.386,2.354,2.466l2.722-1.697c0.225-0.138,0.458-0.255,0.697-0.347c1.656-0.637,3.589-0.129,4.771,1.333
						c0.457,0.567,0.754,1.217,0.895,1.89c0.402,0.18,0.783,0.425,1.125,0.733c1.341,1.204,1.82,3.121,1.199,4.799l-1.295,3.507
						l6.229,2.688c1.809,0.779,2.881,2.713,2.596,4.678c-0.225,1.546-1.247,2.792-2.617,3.318c-0.371,0.142-0.767,0.231-1.18,0.26
						l-6.688,0.468l0.237,3.769c0.113,1.807-0.886,3.469-2.503,4.164c-0.051,0.022-0.102,0.043-0.153,0.062
						c-0.366,0.142-0.745,0.227-1.126,0.257c-0.323,0.596-0.791,1.113-1.387,1.498c-0.241,0.157-0.495,0.283-0.756,0.384
						c-1.631,0.627-3.536,0.147-4.726-1.279l-2.108-2.525c-0.455,0.579-1.058,1.03-1.753,1.298
						c-0.372,0.144-0.771,0.231-1.186,0.261c-0.099,0.008-0.196,0.009-0.294,0.009l0.367,3.495c0.205,1.948-0.895,3.742-2.635,4.411
						c-0.159,0.061-0.323,0.111-0.492,0.154c-2.02,0.496-4.12-0.604-4.936-2.584l-1.164-2.828l-1.91,2.3
						c-0.463,0.559-1.046,0.964-1.684,1.209c-0.086,0.033-0.172,0.063-0.259,0.09c-0.064,0.789-0.341,1.562-0.835,2.221
						l-1.793,2.396l2.936,0.581c2.057,0.407,3.541,2.288,3.488,4.421c-0.043,1.758-1.121,3.251-2.66,3.841
						c-0.327,0.125-0.674,0.21-1.037,0.249l-3.408,0.355c0.021,0.099,0.039,0.197,0.053,0.296c0.17,1.216-0.172,2.39-0.873,3.277
						l2.844,1.59c1.861,1.041,2.711,3.312,1.994,5.319c-0.243,0.678-0.641,1.254-1.139,1.704c0.055,0.442,0.045,0.897-0.038,1.351
						c-0.272,1.467-1.266,2.645-2.591,3.153c-0.272,0.104-0.56,0.182-0.857,0.227l-3.641,0.545l0.945,6.813
						C903.385,1083.409,902.301,1085.293,900.489,1085.988z M901.041,1040.246l2.368-1.355c0.184-0.107,0.375-0.196,0.569-0.271
						c0.084-0.033,0.169-0.062,0.255-0.09c0.024-0.302,0.081-0.604,0.171-0.901l0.799-2.659l-2.966,1.902L901.041,1040.246z
						 M866.208,1053.113c0.194-0.074,0.396-0.136,0.604-0.179l2.667-0.576l-3.147-1.709l-3.479,0.57l2.375,1.441
						c0.266,0.162,0.51,0.349,0.729,0.557C866.04,1053.18,866.123,1053.146,866.208,1053.113z M833.72,1026.416
						c0.243,0.179,0.474,0.385,0.681,0.619l1.869,2.086l-0.18-3.613l-2.283-2.805l0.006,2.799
						C833.814,1025.814,833.781,1026.121,833.72,1026.416z M910.182,1000.757l-0.007-2.798c-0.001-0.312,0.032-0.622,0.095-0.916
						c-0.244-0.179-0.475-0.384-0.684-0.618l-1.867-2.084l0.18,3.612L910.182,1000.757z M839.754,984.929
						c-0.024,0.303-0.081,0.604-0.17,0.901l-0.801,2.66l2.967-1.903l1.197-3.373l-2.369,1.356c-0.184,0.106-0.375,0.196-0.568,0.271
						C839.926,984.873,839.84,984.902,839.754,984.929z M881.133,972.239l-2.374-1.441c-0.267-0.161-0.509-0.349-0.73-0.558
						c-0.081,0.04-0.164,0.074-0.249,0.106c-0.193,0.075-0.396,0.136-0.604,0.18l-2.668,0.575l3.146,1.708L881.133,972.239z"/>
					<path fill="none" stroke="#5F83FF" stroke-width="3" stroke-linejoin="round" stroke-miterlimit="10" d="M937.199,1012.441
						l-10.574,5.826l8.073-8.954l-10.575,6.591l1.691-7.085l-4.709,8.26l-3.438-0.834l6.901-16.462l-6.327,7.616l-3.856-9.365
						l0.041,17.654l-7.071-1.939l-1.545-3.314l2.351-5.493l-4.396-5.402l-0.348-6.958l-5.421-2.511l-1.07-3.497l3.96-6.172
						l11.779,13.15l-3.398-9.541l9.797,1.43l-16.143-7.62l1.998-2.92l9.025,2.989l-5.996-4.134l12.27-2.177l-11.99-1.255
						l11.756-2.742l-6.995-3.68l4.569-9.939l-8.521,6.655l-4.959-6.26l-0.168,12.377l-3.688-11.779l0.477,12.771l-5.187-5.162
						l4.724,8.442l-2.363,2.613l-10.618-14.625l3.399,9.54l-9.799-1.428l14.979,9.095l-5.058,5.258l-3.554-0.346l-3.519-4.923
						l-6.701,1.098l-6.062-3.29l-4.745,3.504l-3.479-0.864l-3.319-6.696l16.83-3.63l-9.726-1.925l5.941-7.938l-14.249,10.353
						l-1.508-3.277l6.889-6.447l-6.398,3.172l4.079-11.989l-6.853,9.968l3.352-11.828l-6.492,4.292l-6.216-9.188l1.524,10.987
						l-7.697,1.153l10.404,6.551l-11.762-2.826l11.053,6.183l-6.878,1.922l9.434,0.185l1.072,3.445l-17.519,1.838l9.727,1.924
						l-5.941,7.938l14.938-8.56l2.014,7.197l-2.009,2.969l-5.87,0.569l-2.305,6.501l-5.716,3.668l0.679,6.012l-2.411,2.635
						l-7.278-0.524l5.051-16.781l-6.328,7.617l-3.855-9.366l1.894,17.974l-3.507-0.361l-2.137-9.435l-0.4,7.307l-8.189-9.813
						l5.139,11.224l-8.406-9.085l0.502,7.969l-10.785,0.752l10.045,4.331l-2.738,7.416l10.573-5.827l-8.072,8.955l10.575-6.591
						l-1.692,7.084l4.71-8.259l3.438,0.833l-6.901,16.464l6.325-7.617l3.857,9.365l-0.041-17.654l7.07,1.938l1.547,3.314
						l-2.352,5.494l4.396,5.403l0.348,6.957l5.421,2.51l1.069,3.498l-3.959,6.171l-11.78-13.15l3.398,9.542l-9.798-1.428
						l16.143,7.618l-1.997,2.919l-9.026-2.988l5.997,4.133l-12.269,2.177l11.99,1.256l-11.756,2.742l6.994,3.68l-4.568,9.939
						l8.52-6.655l4.959,6.259l0.17-12.378l3.688,11.781l-0.478-12.772l5.186,5.163l-4.723-8.443l2.365-2.613l10.615,14.626
						l-3.399-9.54l9.799,1.427l-14.979-9.094l5.059-5.258l3.555,0.345l3.518,4.923l6.701-1.097l6.062,3.289l4.744-3.503l3.479,0.864
						l3.319,6.695l-16.829,3.631l9.725,1.925l-5.941,7.937l14.25-10.353l1.508,3.277l-6.889,6.449l6.398-3.173l-4.08,11.989
						l6.854-9.967l-3.354,11.827l6.494-4.292l6.217,9.187l-1.526-10.986l7.698-1.154l-10.404-6.548l11.762,2.824l-11.053-6.184
						l6.878-1.923l-9.433-0.184l-1.074-3.445l17.519-1.837l-9.726-1.924l5.941-7.938l-14.938,8.56l-2.013-7.197l2.008-2.969
						l5.87-0.569l2.306-6.502l5.715-3.667l-0.678-6.014l2.41-2.633l7.277,0.523l-5.049,16.781l6.326-7.616l3.857,9.366
						l-1.893-17.974l3.505,0.361l2.136,9.435l0.402-7.307l8.189,9.812l-5.139-11.225l8.404,9.087l-0.5-7.969l10.785-0.752
						l-10.046-4.332L937.199,1012.441z M895.337,1008.3l0.2-4.625l0.981-0.04l-0.938-0.955l0.058-1.339l-0.755,0.627l-3.242-3.302
						l-3.25-3.953l7.574-1.918l3.596,8.357l2.917,8.615l-6.913,3.643L895.337,1008.3z M890.512,1005.596l2.357,6.63l-11.141-4.231
						l5.449-10.599l2.685,6.507l2.825-0.112L890.512,1005.596z M867.182,990.873l6.808,0.987l1.268-2.562l0.479,2.861l6.757,1.343
						l-8.964,7.676L867.182,990.873z M867.524,980.711l8.816,1.14l8.709,1.87l-0.253,8.007l-4.439-2.443l-3.822-2.568l0.441-0.889
						l-1.264,0.335l-1.107-0.743l0.168,0.995l-4.365,1.161l-4.916,0.836L867.524,980.711z M848.773,992.428l5.793-6.743l6.66,4.363
						l-4.213,2.667l-4.021,2.057l-0.541-0.851l-0.325,1.293l-1.163,0.596l0.922,0.366l-1.123,4.464l-1.666,4.786l-5.543-5.78
						L848.773,992.428z M863.793,1004.913l-11.797,0.292l4.123-5.52l-1.557-2.447l2.656,1.057l4.4-5.288L863.793,1004.913z
						 M848.45,1019.785l-0.98,0.039l0.938,0.956l-0.058,1.339l0.756-0.627l3.242,3.303l3.249,3.952l-7.575,1.918l-3.594-8.357
						l-2.918-8.616l6.913-3.642l0.228,5.111L848.45,1019.785z M851.3,1019.671l2.175-1.808l-2.355-6.63l11.139,4.233l-5.447,10.596
						l-2.686-6.505L851.3,1019.671z M876.808,1032.588l-6.81-0.988l-1.268,2.562l-0.479-2.86l-6.758-1.343l8.965-7.676
						L876.808,1032.588z M876.463,1042.749l-8.816-1.14l-8.708-1.871l0.252-8.006l4.44,2.443l3.821,2.567l-0.44,0.891l1.264-0.337
						l1.107,0.745l-0.168-0.997l4.364-1.16l4.917-0.835L876.463,1042.749z M895.213,1031.032l-5.791,6.743l-6.66-4.362l4.213-2.668
						l4.021-2.057l0.541,0.852l0.326-1.294l1.163-0.595l-0.923-0.367l1.122-4.465l1.668-4.785l5.542,5.78L895.213,1031.032z
						 M880.193,1018.547l11.799-0.292l-4.125,5.52l1.558,2.447l-2.655-1.057l-4.4,5.289L880.193,1018.547z"/>
					<path fill="none" stroke="#B3F8FF" stroke-width="3" stroke-linejoin="round" stroke-miterlimit="10" d="M893.874,1071.968
						c-0.38-0.562-1.073-0.772-1.665-0.545c-0.09,0.034-0.179,0.078-0.264,0.135l-3.307,2.185l2.294-8.088
						c0.189-0.671-0.126-1.395-0.747-1.708c-0.363-0.183-0.768-0.195-1.119-0.061c-0.25,0.096-0.475,0.266-0.637,0.503l-1.041,1.514
						l0.749-2.198c0.187-0.55,0.026-1.166-0.404-1.558c-0.124-0.113-0.265-0.203-0.414-0.266l0.94-0.879
						c0.445-0.418,0.57-1.088,0.311-1.657l-1.509-3.278c-0.179-0.391-0.518-0.682-0.923-0.794c-0.289-0.082-0.59-0.066-0.861,0.037
						c-0.11,0.043-0.215,0.099-0.312,0.17l-6.592,4.791l0.232-0.312c0.294-0.392,0.364-0.919,0.185-1.388
						c-0.18-0.468-0.584-0.812-1.065-0.908l-2.885-0.569l10.064-2.17c0.07-0.017,0.137-0.037,0.201-0.062
						c0.331-0.127,0.604-0.381,0.756-0.714c0.183-0.396,0.175-0.861-0.022-1.259l-3.319-6.697c-0.19-0.384-0.537-0.665-0.943-0.767
						l-3.479-0.862c-0.276-0.067-0.563-0.05-0.821,0.05c-0.113,0.043-0.222,0.102-0.321,0.176l-4.044,2.985l-5.287-2.87
						c-0.273-0.147-0.585-0.202-0.887-0.15l-5.845,0.956l-2.999-4.196c-0.244-0.339-0.617-0.558-1.021-0.598l-3.555-0.346
						c-0.215-0.02-0.428,0.009-0.622,0.084c-0.185,0.07-0.353,0.182-0.495,0.329l-5.058,5.258c-0.301,0.313-0.44,0.751-0.38,1.191
						c0.062,0.438,0.316,0.828,0.691,1.058l8.958,5.437l-2.907-0.424c-0.236-0.034-0.471-0.006-0.687,0.077
						c-0.226,0.087-0.429,0.231-0.583,0.431c-0.305,0.384-0.387,0.907-0.219,1.38l0.133,0.375l-4.911-6.766
						c-0.251-0.347-0.64-0.564-1.058-0.594c-0.199-0.012-0.397,0.018-0.58,0.088c-0.197,0.077-0.377,0.198-0.523,0.359l-2.365,2.613
						c-0.409,0.454-0.48,1.134-0.175,1.68l0.645,1.153c-0.138,0.008-0.274,0.037-0.408,0.087c-0.021,0.009-0.04,0.017-0.06,0.025
						c-0.523,0.229-0.85,0.763-0.827,1.347l0.087,2.342l-0.56-1.788c-0.21-0.673-0.864-1.1-1.543-1.01
						c-0.108,0.016-0.212,0.041-0.311,0.077c-0.519,0.199-0.878,0.706-0.886,1.298l-0.115,8.462l-2.525-3.188
						c-0.396-0.497-1.047-0.667-1.601-0.454c-0.122,0.047-0.24,0.114-0.35,0.197l-3.908,3.053l2.096-4.558
						c0.323-0.7,0.032-1.546-0.651-1.905l-3.561-1.872l8.039-1.875c0.062-0.015,0.121-0.033,0.18-0.057
						c0.566-0.217,0.933-0.794,0.881-1.431c-0.054-0.7-0.597-1.27-1.283-1.341l-1.82-0.19l2.251-0.399
						c0.086-0.016,0.169-0.039,0.249-0.07c0.439-0.169,0.769-0.557,0.861-1.04c0.032-0.164,0.035-0.331,0.011-0.494l1.231,0.408
						c0.312,0.104,0.637,0.093,0.926-0.019c0.252-0.098,0.477-0.27,0.637-0.506l2-2.918c0.237-0.349,0.309-0.789,0.195-1.202
						c-0.113-0.415-0.4-0.759-0.783-0.939l-7.469-3.523l0.385,0.056c0.236,0.034,0.473,0.006,0.687-0.076
						c0.226-0.086,0.429-0.232,0.583-0.431c0.305-0.386,0.389-0.908,0.22-1.381l-1.009-2.83l7.045,7.864
						c0.296,0.329,0.721,0.504,1.15,0.474c0.137-0.011,0.269-0.04,0.393-0.087c0.27-0.104,0.502-0.291,0.663-0.541l3.958-6.174
						c0.228-0.353,0.287-0.796,0.16-1.205l-1.066-3.497c-0.123-0.4-0.408-0.731-0.783-0.904l-4.623-2.139l-0.301-6.066
						c-0.016-0.315-0.132-0.616-0.33-0.86l-3.834-4.712l2.005-4.682c0.162-0.379,0.153-0.815-0.022-1.194l-1.547-3.313
						c-0.18-0.39-0.52-0.68-0.926-0.789l-7.072-1.941c-0.287-0.078-0.585-0.062-0.854,0.041c-0.124,0.049-0.242,0.114-0.35,0.199
						c-0.341,0.264-0.539,0.679-0.539,1.12l0.024,10.56l-1.144-2.779c-0.191-0.464-0.602-0.797-1.086-0.879
						c-0.248-0.043-0.497-0.018-0.723,0.069c-0.214,0.083-0.408,0.219-0.562,0.403l-0.248,0.299l3.193-7.615
						c0.165-0.392,0.147-0.84-0.045-1.223c-0.192-0.384-0.541-0.663-0.95-0.763l-3.438-0.831c-0.277-0.067-0.561-0.048-0.812,0.05
						c-0.289,0.11-0.539,0.32-0.701,0.604l-0.643,1.127c-0.09-0.136-0.205-0.26-0.338-0.36c-0.393-0.296-0.896-0.364-1.336-0.195
						c-0.08,0.03-0.158,0.068-0.232,0.114l-1.939,1.21l1.225-1.361c0.463-0.512,0.487-1.297,0.059-1.854
						c-0.389-0.509-1.047-0.691-1.613-0.474c-0.059,0.021-0.113,0.048-0.17,0.078l-7.23,3.983l1.395-3.774
						c0.268-0.724-0.082-1.546-0.791-1.851l-4.606-1.986l4.946-0.345c0.139-0.011,0.27-0.041,0.393-0.087
						c0.553-0.212,0.925-0.773,0.886-1.408l-0.256-4.059l5.747,6.212c0.4,0.434,1.008,0.57,1.525,0.372
						c0.099-0.038,0.192-0.088,0.283-0.15c0.564-0.388,0.764-1.142,0.471-1.782l-0.779-1.704l1.501,1.798
						c0.375,0.45,0.974,0.628,1.516,0.449c0.021-0.007,0.04-0.015,0.062-0.022c0.133-0.051,0.255-0.122,0.363-0.207l0.291,1.289
						c0.138,0.61,0.646,1.067,1.254,1.13l3.506,0.361c0.217,0.021,0.432-0.008,0.63-0.084c0.183-0.07,0.349-0.18,0.489-0.323
						c0.291-0.302,0.436-0.722,0.39-1.147l-0.875-8.314l0.151,0.367c0.191,0.464,0.602,0.798,1.086,0.881
						c0.248,0.043,0.496,0.016,0.722-0.07c0.215-0.083,0.409-0.22,0.562-0.402l1.877-2.261l-3.021,10.034
						c-0.125,0.42-0.053,0.882,0.194,1.249c0.249,0.367,0.646,0.599,1.078,0.63l7.277,0.526c0.202,0.016,0.403-0.017,0.589-0.088
						c0.194-0.074,0.371-0.194,0.518-0.353l2.41-2.636c0.275-0.299,0.406-0.712,0.359-1.127l-0.577-5.126l4.984-3.196
						c0.259-0.166,0.454-0.414,0.558-0.708l2.011-5.671l5.003-0.485c0.124-0.012,0.244-0.041,0.356-0.083
						c0.259-0.1,0.484-0.278,0.644-0.513l2.01-2.969c0.234-0.348,0.304-0.788,0.188-1.201l-2.013-7.198
						c-0.121-0.429-0.424-0.778-0.826-0.952c-0.336-0.145-0.707-0.15-1.039-0.023c-0.064,0.024-0.128,0.054-0.189,0.089l-8.934,5.12
						l1.764-2.354c0.293-0.393,0.363-0.919,0.184-1.388s-0.584-0.812-1.064-0.907l-0.383-0.077l8.104-0.85
						c0.12-0.012,0.235-0.04,0.347-0.082c0.271-0.104,0.504-0.293,0.666-0.546c0.225-0.357,0.282-0.799,0.153-1.209l-1.071-3.446
						c-0.188-0.597-0.729-1.012-1.338-1.024l-1.288-0.024c0.068-0.146,0.114-0.307,0.13-0.473c0.058-0.58-0.236-1.146-0.742-1.43
						l-2.026-1.134l1.786,0.43c0.279,0.067,0.56,0.043,0.811-0.052c0.352-0.136,0.643-0.415,0.791-0.795
						c0.252-0.647,0.002-1.397-0.588-1.769l-7.115-4.479l3.92-0.587c0.101-0.015,0.196-0.041,0.287-0.076
						c0.59-0.227,0.965-0.848,0.872-1.518l-0.698-5.039l2.85,4.212c0.379,0.562,1.074,0.772,1.664,0.545
						c0.092-0.034,0.18-0.078,0.264-0.135l3.307-2.185l-2.293,8.088c-0.189,0.671,0.127,1.395,0.747,1.708
						c0.364,0.183,0.769,0.195,1.12,0.061c0.249-0.097,0.474-0.266,0.637-0.504l1.041-1.514l-0.749,2.199
						c-0.187,0.549-0.027,1.166,0.403,1.559c0.125,0.113,0.266,0.201,0.414,0.265l-0.94,0.879c-0.446,0.418-0.571,1.088-0.31,1.656
						l1.508,3.279c0.18,0.391,0.518,0.681,0.924,0.795c0.289,0.08,0.59,0.065,0.861-0.039c0.109-0.043,0.214-0.098,0.311-0.17
						l6.593-4.79l-0.232,0.312c-0.294,0.392-0.364,0.919-0.185,1.387c0.18,0.469,0.584,0.812,1.065,0.908l2.886,0.57l-10.066,2.17
						c-0.068,0.017-0.135,0.037-0.199,0.062c-0.332,0.127-0.605,0.381-0.757,0.713c-0.183,0.397-0.175,0.861,0.022,1.261
						l3.319,6.696c0.19,0.384,0.537,0.665,0.944,0.767l3.479,0.863c0.277,0.066,0.563,0.049,0.822-0.05
						c0.111-0.044,0.221-0.103,0.32-0.177l4.044-2.986l5.287,2.871c0.273,0.147,0.585,0.202,0.888,0.151l5.844-0.957l3,4.196
						c0.243,0.339,0.616,0.558,1.021,0.598l3.555,0.346c0.213,0.02,0.426-0.009,0.621-0.084c0.185-0.071,0.354-0.182,0.494-0.329
						l5.059-5.259c0.301-0.312,0.44-0.751,0.381-1.189c-0.062-0.439-0.316-0.83-0.693-1.059l-8.956-5.438l2.906,0.425
						c0.235,0.034,0.472,0.005,0.687-0.077c0.226-0.086,0.428-0.231,0.584-0.431c0.304-0.385,0.387-0.908,0.218-1.38l-0.134-0.376
						l4.912,6.767c0.252,0.347,0.64,0.564,1.059,0.593c0.199,0.013,0.396-0.019,0.579-0.088c0.198-0.076,0.377-0.197,0.524-0.358
						l2.363-2.614c0.411-0.452,0.482-1.133,0.176-1.679l-0.644-1.154c0.137-0.007,0.274-0.037,0.407-0.087
						c0.02-0.008,0.041-0.016,0.061-0.025c0.521-0.229,0.848-0.761,0.827-1.347l-0.088-2.344l0.56,1.791
						c0.211,0.672,0.865,1.099,1.545,1.009c0.107-0.015,0.211-0.039,0.309-0.077c0.52-0.198,0.879-0.706,0.887-1.296l0.115-8.463
						l2.524,3.188c0.396,0.498,1.048,0.667,1.601,0.455c0.122-0.048,0.24-0.113,0.35-0.197l3.908-3.053l-2.097,4.559
						c-0.321,0.698-0.032,1.545,0.651,1.904l3.561,1.872l-8.037,1.875c-0.062,0.015-0.122,0.033-0.18,0.056
						c-0.567,0.218-0.932,0.794-0.883,1.433c0.057,0.7,0.6,1.267,1.285,1.34l1.82,0.19l-2.25,0.398
						c-0.088,0.017-0.171,0.04-0.25,0.07c-0.439,0.169-0.768,0.557-0.861,1.04c-0.033,0.165-0.035,0.332-0.01,0.493l-1.233-0.406
						c-0.311-0.104-0.636-0.093-0.925,0.018c-0.254,0.098-0.477,0.271-0.639,0.508l-1.998,2.917
						c-0.238,0.349-0.309,0.789-0.196,1.202c0.114,0.413,0.401,0.758,0.784,0.938l7.469,3.524l-0.387-0.057
						c-0.234-0.033-0.471-0.005-0.686,0.077c-0.227,0.086-0.429,0.232-0.585,0.432c-0.304,0.385-0.387,0.907-0.218,1.379
						l1.008,2.832l-7.045-7.866c-0.294-0.328-0.719-0.503-1.15-0.473c-0.136,0.01-0.266,0.039-0.392,0.086
						c-0.269,0.104-0.501,0.292-0.663,0.542l-3.957,6.174c-0.229,0.353-0.287,0.796-0.162,1.205l1.069,3.497
						c0.122,0.4,0.407,0.729,0.782,0.903l4.621,2.14l0.302,6.066c0.017,0.314,0.132,0.616,0.33,0.86l3.833,4.712l-2.004,4.681
						c-0.16,0.381-0.152,0.816,0.023,1.194l1.545,3.314c0.181,0.389,0.521,0.679,0.926,0.789l7.073,1.941
						c0.286,0.078,0.585,0.062,0.854-0.041c0.124-0.049,0.242-0.114,0.35-0.199c0.341-0.266,0.539-0.68,0.537-1.121l-0.024-10.558
						l1.145,2.778c0.19,0.463,0.603,0.796,1.086,0.88c0.248,0.042,0.497,0.017,0.722-0.07c0.215-0.083,0.409-0.22,0.562-0.402
						l0.25-0.301l-3.193,7.616c-0.165,0.391-0.147,0.838,0.045,1.222c0.192,0.385,0.54,0.663,0.949,0.763l3.437,0.832
						c0.278,0.067,0.562,0.048,0.814-0.05c0.289-0.111,0.538-0.321,0.699-0.604l0.645-1.129c0.09,0.138,0.203,0.262,0.338,0.361
						c0.393,0.296,0.896,0.365,1.336,0.196c0.08-0.03,0.156-0.068,0.232-0.115l1.939-1.209l-1.226,1.36
						c-0.462,0.512-0.485,1.297-0.058,1.855c0.389,0.507,1.046,0.691,1.613,0.474c0.057-0.021,0.114-0.047,0.17-0.078l7.229-3.984
						l-1.395,3.774c-0.269,0.725,0.083,1.547,0.79,1.852l4.607,1.986l-4.946,0.345c-0.138,0.01-0.271,0.04-0.394,0.087
						c-0.552,0.212-0.924,0.773-0.885,1.408l0.256,4.06l-5.746-6.214c-0.4-0.434-1.008-0.569-1.527-0.371
						c-0.096,0.038-0.191,0.088-0.28,0.15c-0.566,0.387-0.767,1.142-0.474,1.781l0.782,1.707l-1.503-1.8
						c-0.375-0.448-0.975-0.628-1.516-0.449c-0.021,0.007-0.041,0.014-0.062,0.022c-0.132,0.05-0.255,0.121-0.362,0.206
						l-0.291-1.288c-0.139-0.61-0.646-1.067-1.255-1.129l-3.505-0.362c-0.217-0.021-0.432,0.007-0.63,0.084
						c-0.183,0.069-0.349,0.18-0.489,0.321c-0.293,0.302-0.436,0.724-0.391,1.148l0.877,8.316l-0.153-0.368
						c-0.19-0.465-0.603-0.798-1.085-0.881c-0.25-0.043-0.498-0.017-0.723,0.07c-0.215,0.083-0.409,0.22-0.562,0.402l-1.876,2.261
						l3.02-10.034c0.127-0.421,0.055-0.883-0.193-1.249c-0.248-0.368-0.646-0.6-1.078-0.63l-7.277-0.526
						c-0.203-0.013-0.403,0.017-0.588,0.087c-0.195,0.075-0.373,0.196-0.518,0.354l-2.41,2.636c-0.275,0.3-0.407,0.712-0.361,1.126
						l0.578,5.126l-4.983,3.199c-0.259,0.163-0.455,0.412-0.56,0.706l-2.01,5.671l-5.003,0.484
						c-0.124,0.012-0.243,0.041-0.356,0.084c-0.258,0.1-0.484,0.277-0.645,0.514l-2.008,2.967c-0.235,0.348-0.304,0.789-0.189,1.201
						l2.014,7.199c0.12,0.429,0.424,0.778,0.825,0.952c0.336,0.145,0.707,0.15,1.04,0.022c0.063-0.024,0.127-0.053,0.189-0.088
						l8.932-5.12l-1.762,2.354c-0.295,0.393-0.364,0.919-0.185,1.387c0.18,0.47,0.584,0.812,1.065,0.908l0.382,0.077l-8.104,0.85
						c-0.12,0.014-0.236,0.039-0.346,0.081c-0.271,0.104-0.506,0.294-0.666,0.548c-0.227,0.356-0.283,0.798-0.154,1.208l1.072,3.446
						c0.186,0.597,0.727,1.012,1.338,1.024l1.287,0.024c-0.067,0.146-0.113,0.307-0.13,0.474c-0.058,0.579,0.237,1.145,0.741,1.428
						l2.028,1.134l-1.786-0.429c-0.28-0.068-0.561-0.044-0.811,0.053c-0.352,0.134-0.645,0.414-0.791,0.794
						c-0.252,0.647-0.002,1.396,0.587,1.769l7.114,4.479l-3.919,0.587c-0.101,0.015-0.195,0.04-0.286,0.076
						c-0.592,0.226-0.967,0.848-0.873,1.519l0.7,5.039L893.874,1071.968z M882.006,1032.188c-0.407,0.258-0.652,0.713-0.648,1.206
						c0.003,0.492,0.254,0.954,0.664,1.224l6.66,4.362c0.389,0.256,0.854,0.295,1.258,0.14c0.204-0.079,0.393-0.208,0.545-0.387
						l5.793-6.743c0.023-0.028,0.049-0.058,0.071-0.09l5.22-7.218c0.408-0.563,0.348-1.352-0.142-1.862l-5.541-5.781
						c-0.341-0.354-0.833-0.511-1.304-0.412c-0.071,0.016-0.14,0.036-0.206,0.062c-0.376,0.144-0.671,0.448-0.808,0.84l-0.189,0.542
						c-0.022-0.157-0.07-0.312-0.145-0.459c-0.254-0.497-0.762-0.805-1.305-0.792l-11.797,0.293
						c-0.158,0.003-0.312,0.035-0.455,0.09c-0.227,0.087-0.429,0.235-0.584,0.43c-0.252,0.321-0.354,0.741-0.279,1.152l2.176,11.907
						c0.098,0.547,0.498,0.992,1.023,1.143c0.156,0.046,0.314,0.063,0.469,0.053L882.006,1032.188z M858.674,1030.388
						c-0.066,0.025-0.131,0.058-0.193,0.094c-0.416,0.241-0.678,0.686-0.693,1.178l-0.252,8.003
						c-0.022,0.708,0.461,1.334,1.141,1.48l8.708,1.873c0.038,0.008,0.075,0.014,0.114,0.019l8.816,1.138
						c0.232,0.03,0.459,0.001,0.664-0.078c0.402-0.154,0.722-0.496,0.84-0.945l2.032-7.698c0.126-0.475,0.003-0.986-0.324-1.354
						c-0.327-0.368-0.813-0.544-1.288-0.464l-0.557,0.096c0.122-0.095,0.229-0.214,0.313-0.352c0.29-0.463,0.288-1.062-0.003-1.535
						l-6.35-10.306c-0.219-0.356-0.576-0.6-0.979-0.669c-0.246-0.043-0.494-0.017-0.722,0.07c-0.143,0.055-0.278,0.134-0.397,0.238
						l-8.965,7.674c-0.412,0.352-0.583,0.922-0.44,1.461c0.044,0.159,0.111,0.306,0.2,0.438l-0.503-0.276
						C859.473,1030.272,859.049,1030.245,858.674,1030.388z M894.162,1013.446c0.021,0.493,0.29,0.945,0.709,1.196
						c0.372,0.225,0.816,0.264,1.21,0.112c0.05-0.019,0.099-0.041,0.146-0.067l6.914-3.641c0.609-0.321,0.89-1.054,0.664-1.724
						l-2.92-8.617c-0.012-0.036-0.025-0.074-0.042-0.109l-3.595-8.357c-0.279-0.649-0.978-1.006-1.646-0.836l-7.575,1.918
						c-0.053,0.012-0.104,0.028-0.153,0.047c-0.393,0.15-0.697,0.477-0.825,0.892c-0.142,0.468-0.039,0.982,0.275,1.364l0.367,0.448
						c-0.145-0.062-0.299-0.099-0.459-0.108c-0.2-0.013-0.393,0.02-0.57,0.088c-0.309,0.118-0.57,0.349-0.729,0.658l-5.449,10.596
						c-0.188,0.367-0.21,0.799-0.06,1.19c0.148,0.389,0.455,0.696,0.839,0.842l11.14,4.231c0.324,0.124,0.674,0.12,0.982,0.001
						c0.178-0.067,0.342-0.172,0.482-0.315c0.113-0.115,0.203-0.245,0.27-0.388L894.162,1013.446z M847.906,1008.705
						c-0.049,0.019-0.098,0.042-0.146,0.067l-6.913,3.641c-0.609,0.321-0.891,1.054-0.664,1.724l2.918,8.616
						c0.013,0.037,0.027,0.074,0.043,0.11l3.594,8.357c0.281,0.65,0.979,1.005,1.646,0.836l7.574-1.917
						c0.055-0.013,0.104-0.029,0.154-0.048c0.393-0.151,0.698-0.478,0.824-0.892c0.143-0.468,0.04-0.982-0.273-1.364l-0.369-0.448
						c0.146,0.062,0.301,0.099,0.461,0.108c0.199,0.012,0.393-0.02,0.57-0.089c0.309-0.118,0.57-0.348,0.729-0.658l5.449-10.595
						c0.188-0.367,0.209-0.8,0.061-1.189c-0.15-0.39-0.456-0.697-0.84-0.844l-11.139-4.23c-0.324-0.124-0.674-0.12-0.982-0.002
						c-0.178,0.068-0.343,0.173-0.482,0.316c-0.113,0.114-0.204,0.244-0.27,0.388l-0.025-0.579c-0.022-0.494-0.291-0.945-0.71-1.197
						C848.744,1008.592,848.299,1008.554,847.906,1008.705z M866.307,989.73c-0.121,0.098-0.229,0.214-0.313,0.353
						c-0.29,0.464-0.29,1.062,0.003,1.535l6.35,10.306c0.219,0.356,0.574,0.6,0.978,0.669c0.246,0.043,0.495,0.016,0.722-0.07
						c0.143-0.056,0.277-0.134,0.398-0.238l8.965-7.674c0.411-0.353,0.582-0.923,0.439-1.461c-0.043-0.159-0.111-0.307-0.199-0.438
						l0.503,0.275c0.364,0.2,0.786,0.228,1.163,0.085c0.064-0.025,0.13-0.058,0.193-0.094c0.415-0.241,0.677-0.686,0.693-1.177
						l0.252-8.005c0.021-0.706-0.462-1.333-1.141-1.479l-8.709-1.873c-0.038-0.008-0.076-0.014-0.113-0.02l-8.817-1.137
						c-0.232-0.031-0.458-0.002-0.663,0.078c-0.403,0.154-0.723,0.496-0.84,0.945l-2.033,7.698
						c-0.126,0.475-0.002,0.985,0.324,1.354c0.327,0.368,0.814,0.544,1.289,0.463L866.307,989.73z M850.608,1005.39
						c0.022,0.156,0.07,0.312,0.146,0.459c0.254,0.496,0.762,0.805,1.304,0.791l11.798-0.292c0.158-0.004,0.311-0.035,0.453-0.09
						c0.229-0.087,0.43-0.233,0.584-0.43c0.254-0.321,0.355-0.741,0.281-1.152l-2.176-11.907c-0.099-0.548-0.498-0.993-1.023-1.143
						c-0.156-0.047-0.314-0.061-0.47-0.053l0.478-0.302c0.406-0.258,0.651-0.714,0.648-1.206c-0.004-0.491-0.254-0.955-0.664-1.224
						l-6.66-4.362c-0.39-0.256-0.855-0.295-1.258-0.141c-0.205,0.079-0.393,0.209-0.545,0.387l-5.793,6.744
						c-0.025,0.028-0.05,0.058-0.072,0.09l-5.221,7.218c-0.406,0.562-0.347,1.353,0.143,1.862l5.541,5.781
						c0.342,0.354,0.834,0.51,1.304,0.412c0.071-0.016,0.14-0.036,0.206-0.062c0.375-0.143,0.671-0.447,0.809-0.84L850.608,1005.39z
						 M887.212,1026.87l1.728,0.687c0.332,0.133,0.688,0.13,1.002,0.01c0.225-0.086,0.426-0.232,0.582-0.433
						c0.377-0.478,0.407-1.154,0.074-1.679l-1.013-1.592l3.329-4.457l-1.012,2.907c-0.014,0.041-0.026,0.082-0.037,0.121
						l-1.122,4.467c-0.032,0.125-0.046,0.253-0.044,0.378c-0.074,0.016-0.146,0.036-0.219,0.062
						c-0.045,0.019-0.09,0.037-0.133,0.062l-4.021,2.054c-0.037,0.02-0.073,0.041-0.108,0.063l-2.562,1.622L887.212,1026.87z
						 M873.322,1034.469c-0.041,0.006-0.082,0.015-0.123,0.025l-4.363,1.162c-0.048,0.013-0.094,0.027-0.139,0.046
						c-0.072,0.027-0.14,0.061-0.205,0.099c-0.082-0.095-0.178-0.18-0.286-0.252l-3.821-2.568c-0.035-0.023-0.072-0.045-0.109-0.065
						l-2.697-1.484l5.457,1.084l0.312,1.862c0.104,0.612,0.577,1.096,1.177,1.198c0.251,0.045,0.499,0.017,0.722-0.069
						c0.314-0.12,0.582-0.355,0.74-0.676l0.824-1.666l5.5,0.798L873.322,1034.469z M892.17,1006.084l1.416-1.174
						c0.467-0.386,0.631-1.041,0.408-1.622c-0.224-0.581-0.783-0.957-1.389-0.934l-1.838,0.075l-2.169-5.254l1.975,2.399
						c0.028,0.033,0.056,0.065,0.086,0.097l3.242,3.303c0.091,0.094,0.192,0.171,0.299,0.235c-0.038,0.116-0.06,0.243-0.065,0.373
						l-0.2,4.625c-0.001,0.041-0.001,0.085,0.001,0.128l0.137,3.105L892.17,1006.084z M853.414,1023.885
						c-0.027-0.033-0.057-0.065-0.086-0.096l-3.242-3.304c-0.09-0.094-0.191-0.172-0.299-0.234c0.038-0.118,0.062-0.243,0.066-0.374
						l0.199-4.624c0.002-0.043,0.002-0.085,0-0.129l-0.138-3.105l1.902,5.357l-1.415,1.173c-0.466,0.388-0.631,1.041-0.408,1.623
						c0.223,0.581,0.783,0.958,1.389,0.934l1.838-0.075l2.168,5.254L853.414,1023.885z M876.953,990.944l-0.312-1.862
						c-0.104-0.612-0.578-1.095-1.178-1.198c-0.25-0.044-0.498-0.016-0.723,0.069c-0.313,0.121-0.58,0.356-0.738,0.677l-0.824,1.666
						l-5.5-0.797l2.987-0.509c0.042-0.006,0.082-0.014,0.122-0.024l4.365-1.163c0.047-0.013,0.093-0.027,0.139-0.045
						c0.071-0.027,0.139-0.061,0.204-0.099c0.083,0.095,0.177,0.18,0.286,0.252l3.822,2.568c0.035,0.023,0.071,0.045,0.108,0.066
						l2.697,1.482L876.953,990.944z M852.086,1001.146c0.014-0.041,0.025-0.082,0.036-0.122l1.122-4.466
						c0.033-0.126,0.047-0.253,0.045-0.379c0.073-0.015,0.146-0.036,0.218-0.062c0.046-0.018,0.089-0.036,0.134-0.061l4.021-2.054
						c0.037-0.021,0.072-0.041,0.107-0.063l2.562-1.621l-3.556,4.271l-1.727-0.688c-0.332-0.132-0.688-0.129-1.002-0.009
						c-0.225,0.086-0.428,0.232-0.584,0.433c-0.376,0.477-0.406,1.154-0.072,1.679l1.013,1.593l-3.329,4.456L852.086,1001.146z"/>
					<path fill="none" stroke="#5F83FF" stroke-width="3" stroke-linejoin="round" stroke-miterlimit="10" d="M883.445,1041.57
						c-0.244-0.109-0.495-0.201-0.753-0.274l0.264-0.999l0.864,0.566C883.678,1041.09,883.553,1041.329,883.445,1041.57z
						 M853.426,1036.268c-0.264-0.015-0.531-0.013-0.794,0.01c-0.034-0.268-0.086-0.534-0.156-0.8l0.982-0.247L853.426,1036.268z
						 M901.49,1016.797l0.897-0.472c0.125,0.244,0.266,0.479,0.419,0.698c-0.211,0.16-0.41,0.336-0.596,0.523L901.49,1016.797z
						 M874.578,1018.466c-0.861-0.968-2.02-1.625-3.295-1.844c-0.973-0.167-1.973-0.069-2.889,0.281
						c-0.268,0.102-0.525,0.225-0.771,0.367c0.375-1.231,0.331-2.574-0.143-3.808c-0.475-1.235-1.34-2.264-2.442-2.928
						c0.278-0.059,0.552-0.14,0.819-0.243c0.916-0.352,1.724-0.946,2.336-1.724c0.801-1.014,1.223-2.276,1.217-3.574
						c0.861,0.97,2.021,1.625,3.297,1.845c0.967,0.166,1.967,0.069,2.887-0.282c0.266-0.103,0.523-0.225,0.771-0.369
						c-0.375,1.232-0.332,2.576,0.143,3.811c0.473,1.234,1.339,2.263,2.441,2.926c-0.278,0.06-0.553,0.141-0.819,0.244
						c-0.919,0.353-1.728,0.95-2.339,1.726C874.992,1015.907,874.57,1017.169,874.578,1018.466z M841.6,1007.134
						c-0.125-0.243-0.265-0.476-0.42-0.699c0.212-0.158,0.412-0.333,0.598-0.522l0.719,0.751L841.6,1007.134z M890.529,988.23
						l0.033-1.038c0.264,0.016,0.529,0.014,0.793-0.011c0.034,0.269,0.086,0.535,0.156,0.801L890.529,988.23z M860.168,982.597
						c0.143-0.228,0.268-0.463,0.376-0.706c0.243,0.107,0.493,0.2,0.751,0.273l-0.263,0.998L860.168,982.597z"/>
				</g>
			</g>
			<path fill="#696969" d="M943.719,933.577v-3.531c-1.957,0-3.562-1.574-3.562-3.531h-3.531c0,1.957-1.574,3.531-3.531,3.531
				s-3.562-1.574-3.562-3.531H926c0,1.957-1.605,3.531-3.562,3.531s-3.531-1.574-3.531-3.531h-3.531
				c0,1.957-1.605,3.531-3.562,3.531s-3.531-1.574-3.531-3.531h-3.562c0,1.957-1.574,3.531-3.531,3.531s-3.531-1.574-3.531-3.531
				h-3.562c0,1.957-1.574,3.531-3.531,3.531s-3.531-1.574-3.531-3.531h-3.562c0,1.957-1.574,3.531-3.531,3.531
				s-3.562-1.574-3.562-3.531h-3.531c0,1.957-1.574,3.531-3.531,3.531s-3.562-1.574-3.562-3.531h-3.531
				c0,1.957-1.605,3.531-3.562,3.531s-3.531-1.574-3.531-3.531h-3.531c0,1.957-1.605,3.531-3.562,3.531s-3.531-1.574-3.531-3.531
				h-3.531c0,1.957-1.605,3.531-3.562,3.531s-3.531-1.574-3.531-3.531h-3.562c0,1.957-1.574,3.531-3.531,3.531v3.531
				c1.957,0,3.531,1.605,3.531,3.562s-1.574,3.531-3.531,3.531v3.562c1.957,0,3.531,1.574,3.531,3.531s-1.574,3.531-3.531,3.531
				v3.562c1.957,0,3.531,1.574,3.531,3.531s-1.574,3.531-3.531,3.531v3.562c1.957,0,3.531,1.574,3.531,3.531
				s-1.574,3.562-3.531,3.562v3.531c1.957,0,3.531,1.574,3.531,3.531s-1.574,3.562-3.531,3.562v3.531
				c1.957,0,3.531,1.605,3.531,3.562s-1.574,3.531-3.531,3.531v3.531c1.957,0,3.531,1.605,3.531,3.562s-1.574,3.531-3.531,3.531
				v3.531c1.957,0,3.531,1.605,3.531,3.562s-1.574,3.531-3.531,3.531v3.562c1.957,0,3.531,1.574,3.531,3.531
				s-1.574,3.531-3.531,3.531v3.562c1.957,0,3.531,1.574,3.531,3.531s-1.574,3.562-3.531,3.562v3.531
				c1.957,0,3.531,1.574,3.531,3.531s-1.574,3.562-3.531,3.562v3.531c1.957,0,3.531,1.574,3.531,3.531s-1.574,3.562-3.531,3.562
				v3.531c1.957,0,3.531,1.605,3.531,3.562s-1.574,3.531-3.531,3.531v3.531c1.957,0,3.531,1.605,3.531,3.562h3.562
				c0-1.957,1.574-3.562,3.531-3.562s3.562,1.605,3.562,3.562h3.531c0-1.957,1.574-3.562,3.531-3.562s3.562,1.605,3.562,3.562h3.531
				c0-1.957,1.574-3.562,3.531-3.562s3.562,1.605,3.562,3.562h3.531c0-1.957,1.605-3.562,3.562-3.562s3.531,1.605,3.531,3.562h3.531
				c0-1.957,1.605-3.562,3.562-3.562s3.531,1.605,3.531,3.562h3.562c0-1.957,1.574-3.562,3.531-3.562s3.531,1.605,3.531,3.562h3.562
				c0-1.957,1.574-3.562,3.531-3.562s3.531,1.605,3.531,3.562h3.562c0-1.957,1.574-3.562,3.531-3.562s3.562,1.605,3.562,3.562h3.531
				c0-1.957,1.574-3.562,3.531-3.562s3.562,1.605,3.562,3.562h3.531c0-1.957,1.605-3.562,3.562-3.562s3.531,1.605,3.531,3.562h3.531
				c0-1.957,1.605-3.562,3.562-3.562v-3.531c-1.957,0-3.562-1.574-3.562-3.531s1.605-3.562,3.562-3.562v-3.531
				c-1.957,0-3.562-1.605-3.562-3.562s1.605-3.531,3.562-3.531v-3.531c-1.957,0-3.562-1.605-3.562-3.562s1.605-3.531,3.562-3.531
				v-3.531c-1.957,0-3.562-1.605-3.562-3.562s1.605-3.531,3.562-3.531v-3.562c-1.957,0-3.562-1.574-3.562-3.531
				s1.605-3.531,3.562-3.531v-3.562c-1.957,0-3.562-1.574-3.562-3.531s1.605-3.562,3.562-3.562v-3.531
				c-1.957,0-3.562-1.574-3.562-3.531s1.605-3.562,3.562-3.562v-3.531c-1.957,0-3.562-1.574-3.562-3.531s1.605-3.562,3.562-3.562
				v-3.531c-1.957,0-3.562-1.605-3.562-3.562s1.605-3.531,3.562-3.531v-3.531c-1.957,0-3.562-1.605-3.562-3.562
				s1.605-3.531,3.562-3.531v-3.562c-1.957,0-3.562-1.574-3.562-3.531s1.605-3.531,3.562-3.531v-3.562
				c-1.957,0-3.562-1.574-3.562-3.531s1.605-3.531,3.562-3.531v-3.562c-1.957,0-3.562-1.574-3.562-3.531
				S941.762,933.577,943.719,933.577z M936.766,1068.937H833.723V932.888h103.043V1068.937z"/>
			<path fill="#FFFFFF" d="M942.719,932.577v-3.531c-1.957,0-3.562-1.574-3.562-3.531h-3.531c0,1.957-1.574,3.531-3.531,3.531
				s-3.562-1.574-3.562-3.531H925c0,1.957-1.605,3.531-3.562,3.531s-3.531-1.574-3.531-3.531h-3.531
				c0,1.957-1.605,3.531-3.562,3.531s-3.531-1.574-3.531-3.531h-3.562c0,1.957-1.574,3.531-3.531,3.531s-3.531-1.574-3.531-3.531
				h-3.562c0,1.957-1.574,3.531-3.531,3.531s-3.531-1.574-3.531-3.531h-3.562c0,1.957-1.574,3.531-3.531,3.531
				s-3.562-1.574-3.562-3.531h-3.531c0,1.957-1.574,3.531-3.531,3.531s-3.562-1.574-3.562-3.531h-3.531
				c0,1.957-1.605,3.531-3.562,3.531s-3.531-1.574-3.531-3.531h-3.531c0,1.957-1.605,3.531-3.562,3.531s-3.531-1.574-3.531-3.531
				h-3.531c0,1.957-1.605,3.531-3.562,3.531s-3.531-1.574-3.531-3.531h-3.562c0,1.957-1.574,3.531-3.531,3.531v3.531
				c1.957,0,3.531,1.605,3.531,3.562s-1.574,3.531-3.531,3.531v3.562c1.957,0,3.531,1.574,3.531,3.531s-1.574,3.531-3.531,3.531
				v3.562c1.957,0,3.531,1.574,3.531,3.531s-1.574,3.531-3.531,3.531v3.562c1.957,0,3.531,1.574,3.531,3.531
				s-1.574,3.562-3.531,3.562v3.531c1.957,0,3.531,1.574,3.531,3.531s-1.574,3.562-3.531,3.562v3.531
				c1.957,0,3.531,1.605,3.531,3.562s-1.574,3.531-3.531,3.531v3.531c1.957,0,3.531,1.605,3.531,3.562s-1.574,3.531-3.531,3.531
				v3.531c1.957,0,3.531,1.605,3.531,3.562s-1.574,3.531-3.531,3.531v3.562c1.957,0,3.531,1.574,3.531,3.531
				s-1.574,3.531-3.531,3.531v3.562c1.957,0,3.531,1.574,3.531,3.531s-1.574,3.562-3.531,3.562v3.531
				c1.957,0,3.531,1.574,3.531,3.531s-1.574,3.562-3.531,3.562v3.531c1.957,0,3.531,1.574,3.531,3.531s-1.574,3.562-3.531,3.562
				v3.531c1.957,0,3.531,1.605,3.531,3.562s-1.574,3.531-3.531,3.531v3.531c1.957,0,3.531,1.605,3.531,3.562h3.562
				c0-1.957,1.574-3.562,3.531-3.562s3.562,1.605,3.562,3.562h3.531c0-1.957,1.574-3.562,3.531-3.562s3.562,1.605,3.562,3.562h3.531
				c0-1.957,1.574-3.562,3.531-3.562s3.562,1.605,3.562,3.562h3.531c0-1.957,1.605-3.562,3.562-3.562s3.531,1.605,3.531,3.562h3.531
				c0-1.957,1.605-3.562,3.562-3.562s3.531,1.605,3.531,3.562h3.562c0-1.957,1.574-3.562,3.531-3.562s3.531,1.605,3.531,3.562h3.562
				c0-1.957,1.574-3.562,3.531-3.562s3.531,1.605,3.531,3.562h3.562c0-1.957,1.574-3.562,3.531-3.562s3.562,1.605,3.562,3.562h3.531
				c0-1.957,1.574-3.562,3.531-3.562s3.562,1.605,3.562,3.562h3.531c0-1.957,1.605-3.562,3.562-3.562s3.531,1.605,3.531,3.562h3.531
				c0-1.957,1.605-3.562,3.562-3.562v-3.531c-1.957,0-3.562-1.574-3.562-3.531s1.605-3.562,3.562-3.562v-3.531
				c-1.957,0-3.562-1.605-3.562-3.562s1.605-3.531,3.562-3.531v-3.531c-1.957,0-3.562-1.605-3.562-3.562s1.605-3.531,3.562-3.531
				v-3.531c-1.957,0-3.562-1.605-3.562-3.562s1.605-3.531,3.562-3.531v-3.562c-1.957,0-3.562-1.574-3.562-3.531
				s1.605-3.531,3.562-3.531v-3.562c-1.957,0-3.562-1.574-3.562-3.531s1.605-3.562,3.562-3.562v-3.531
				c-1.957,0-3.562-1.574-3.562-3.531s1.605-3.562,3.562-3.562v-3.531c-1.957,0-3.562-1.574-3.562-3.531s1.605-3.562,3.562-3.562
				v-3.531c-1.957,0-3.562-1.605-3.562-3.562s1.605-3.531,3.562-3.531v-3.531c-1.957,0-3.562-1.605-3.562-3.562
				s1.605-3.531,3.562-3.531v-3.562c-1.957,0-3.562-1.574-3.562-3.531s1.605-3.531,3.562-3.531v-3.562
				c-1.957,0-3.562-1.574-3.562-3.531s1.605-3.531,3.562-3.531v-3.562c-1.957,0-3.562-1.574-3.562-3.531
				S940.762,932.577,942.719,932.577z M935.766,1067.937H832.723V931.888h103.043V1067.937z"/>
			<linearGradient id="SVGID_15_" gradientUnits="userSpaceOnUse" x1="926.5801" y1="926.584" x2="841.9084" y2="1073.2395">
				<stop  offset="0" style="stop-color:#7175CF"/>
				<stop  offset="1" style="stop-color:#C9CBFF"/>
			</linearGradient>
			<path fill="url(#SVGID_15_)" stroke="#FFFFFF" stroke-miterlimit="10" d="M832.723,931.888v136.049h103.043V931.888H832.723z
				 M836.758,1063.901V935.923h94.973v127.979H836.758z"/>
		</g>
		<g>
			<text transform="matrix(1.1898 0 0 1 881.25 1061.9443)"><tspan x="0" y="0" fill="#8C8C8C" stroke="#878787" stroke-miterlimit="10" font-family="'BordeauxRomanBoldLetPlain'" font-size="50.4299">$.</tspan><tspan x="17.721" y="0" fill="#8C8C8C" stroke="#878787" stroke-miterlimit="10" font-family="'BordeauxRomanBoldLetPlain'" font-size="50.4299">44</tspan></text>
			<text transform="matrix(1.1898 0 0 1 880.25 1060.9443)"><tspan x="0" y="0" fill="#FFFFFF" stroke="#FFFFFF" stroke-miterlimit="10" font-family="'BordeauxRomanBoldLetPlain'" font-size="50.4299">$.</tspan><tspan x="17.721" y="0" fill="#FFFFFF" stroke="#FFFFFF" stroke-miterlimit="10" font-family="'BordeauxRomanBoldLetPlain'" font-size="50.4299">44</tspan></text>
		</g>
		<g opacity="0.52">
			<g>
				<path fill="none" stroke="#FF4343" stroke-width="4" stroke-miterlimit="10" d="M734.492,1013.571l15.75-17.755
					c4.38-4.938,12.658-6.308,18.396-3.045l10.201,5.8c5.737,3.262,14.016,1.892,18.396-3.045l7.788-8.779
					c4.38-4.937,12.658-6.308,18.396-3.045l10.204,5.801c5.737,3.262,14.016,1.892,18.396-3.045l15.755-17.757"/>
			</g>
			<g>
				<path fill="none" stroke="#FF4343" stroke-width="4" stroke-miterlimit="10" d="M732.287,1000.252l15.75-17.755
					c4.38-4.938,12.658-6.308,18.396-3.046l10.202,5.801c5.737,3.262,14.016,1.892,18.396-3.045l7.787-8.779
					c4.38-4.937,12.658-6.308,18.396-3.045l10.204,5.801c5.737,3.262,14.016,1.892,18.396-3.045l15.755-17.757"/>
			</g>
			<g>
				<path fill="none" stroke="#FF4343" stroke-width="4" stroke-miterlimit="10" d="M730.082,986.934l15.751-17.755
					c4.38-4.938,12.657-6.308,18.395-3.046l10.202,5.801c5.737,3.262,14.016,1.892,18.396-3.045l7.787-8.779
					c4.38-4.937,12.658-6.308,18.396-3.046l10.204,5.801c5.737,3.262,14.016,1.891,18.396-3.045l15.755-17.757"/>
			</g>
			<g>
				<path fill="none" stroke="#FF4343" stroke-width="4" stroke-miterlimit="10" d="M736.697,1026.89l15.751-17.755
					c4.38-4.938,12.657-6.308,18.395-3.045l10.201,5.801c5.737,3.262,14.016,1.892,18.396-3.045l7.787-8.779
					c4.38-4.937,12.658-6.308,18.396-3.046l10.205,5.802c5.737,3.262,14.016,1.892,18.396-3.045l15.755-17.757"/>
			</g>
		</g>
	</g>
</g>
</svg>
